<svg width="132" height="66" viewBox="0 0 132 66" fill="none" xmlns="http://www.w3.org/2000/svg">
<rect x="0.5" y="65.5" width="65" height="131" transform="rotate(-90 0.5 65.5)" fill="white" stroke="#2C6E49"/>
<path d="M21.4531 32.1367L23.1289 27.3125H23.9453L21.8398 33H21.2578L21.4531 32.1367ZM19.8867 27.3125L21.5469 32.1367L21.7539 33H21.1719L19.0703 27.3125H19.8867ZM24.2305 30.9336V30.8438C24.2305 30.5391 24.2747 30.2565 24.3633 29.9961C24.4518 29.7331 24.5794 29.5052 24.7461 29.3125C24.9128 29.1172 25.1146 28.9661 25.3516 28.8594C25.5885 28.75 25.8542 28.6953 26.1484 28.6953C26.4453 28.6953 26.7122 28.75 26.9492 28.8594C27.1888 28.9661 27.3919 29.1172 27.5586 29.3125C27.7279 29.5052 27.8568 29.7331 27.9453 29.9961C28.0339 30.2565 28.0781 30.5391 28.0781 30.8438V30.9336C28.0781 31.2383 28.0339 31.5208 27.9453 31.7812C27.8568 32.0417 27.7279 32.2695 27.5586 32.4648C27.3919 32.6576 27.1901 32.8086 26.9531 32.918C26.7188 33.0247 26.4531 33.0781 26.1562 33.0781C25.8594 33.0781 25.5924 33.0247 25.3555 32.918C25.1185 32.8086 24.9154 32.6576 24.7461 32.4648C24.5794 32.2695 24.4518 32.0417 24.3633 31.7812C24.2747 31.5208 24.2305 31.2383 24.2305 30.9336ZM24.9531 30.8438V30.9336C24.9531 31.1445 24.9779 31.3438 25.0273 31.5312C25.0768 31.7161 25.151 31.8802 25.25 32.0234C25.3516 32.1667 25.4779 32.2799 25.6289 32.3633C25.7799 32.444 25.9557 32.4844 26.1562 32.4844C26.3542 32.4844 26.5273 32.444 26.6758 32.3633C26.8268 32.2799 26.9518 32.1667 27.0508 32.0234C27.1497 31.8802 27.224 31.7161 27.2734 31.5312C27.3255 31.3438 27.3516 31.1445 27.3516 30.9336V30.8438C27.3516 30.6354 27.3255 30.4388 27.2734 30.2539C27.224 30.0664 27.1484 29.901 27.0469 29.7578C26.9479 29.612 26.8229 29.4974 26.6719 29.4141C26.5234 29.3307 26.349 29.2891 26.1484 29.2891C25.9505 29.2891 25.776 29.3307 25.625 29.4141C25.4766 29.4974 25.3516 29.612 25.25 29.7578C25.151 29.901 25.0768 30.0664 25.0273 30.2539C24.9779 30.4388 24.9531 30.6354 24.9531 30.8438ZM31.5703 32.0234V28.7734H32.2969V33H31.6055L31.5703 32.0234ZM31.707 31.1328L32.0078 31.125C32.0078 31.4062 31.9779 31.6667 31.918 31.9062C31.8607 32.1432 31.7669 32.349 31.6367 32.5234C31.5065 32.6979 31.3359 32.8346 31.125 32.9336C30.9141 33.0299 30.6576 33.0781 30.3555 33.0781C30.1497 33.0781 29.9609 33.0482 29.7891 32.9883C29.6198 32.9284 29.474 32.8359 29.3516 32.7109C29.2292 32.5859 29.1341 32.4232 29.0664 32.2227C29.0013 32.0221 28.9688 31.7812 28.9688 31.5V28.7734H29.6914V31.5078C29.6914 31.6979 29.7122 31.8555 29.7539 31.9805C29.7982 32.1029 29.8568 32.2005 29.9297 32.2734C30.0052 32.3438 30.0885 32.3932 30.1797 32.4219C30.2734 32.4505 30.3698 32.4648 30.4688 32.4648C30.776 32.4648 31.0195 32.4062 31.1992 32.2891C31.3789 32.1693 31.5078 32.0091 31.5859 31.8086C31.6667 31.6055 31.707 31.3802 31.707 31.1328ZM35.8594 31.8789C35.8594 31.7747 35.8359 31.6784 35.7891 31.5898C35.7448 31.4987 35.6523 31.4167 35.5117 31.3438C35.3737 31.2682 35.1654 31.2031 34.8867 31.1484C34.6523 31.099 34.4401 31.0404 34.25 30.9727C34.0625 30.9049 33.9023 30.8229 33.7695 30.7266C33.6393 30.6302 33.5391 30.5169 33.4688 30.3867C33.3984 30.2565 33.3633 30.1042 33.3633 29.9297C33.3633 29.763 33.3997 29.6055 33.4727 29.457C33.5482 29.3086 33.6536 29.1771 33.7891 29.0625C33.9271 28.9479 34.0924 28.8581 34.2852 28.793C34.4779 28.7279 34.6927 28.6953 34.9297 28.6953C35.2682 28.6953 35.5573 28.7552 35.7969 28.875C36.0365 28.9948 36.2201 29.1549 36.3477 29.3555C36.4753 29.5534 36.5391 29.7734 36.5391 30.0156H35.8164C35.8164 29.8984 35.7812 29.7852 35.7109 29.6758C35.6432 29.5638 35.543 29.4714 35.4102 29.3984C35.2799 29.3255 35.1198 29.2891 34.9297 29.2891C34.7292 29.2891 34.5664 29.3203 34.4414 29.3828C34.319 29.4427 34.2292 29.5195 34.1719 29.6133C34.1172 29.707 34.0898 29.806 34.0898 29.9102C34.0898 29.9883 34.1029 30.0586 34.1289 30.1211C34.1576 30.181 34.207 30.237 34.2773 30.2891C34.3477 30.3385 34.4466 30.3854 34.5742 30.4297C34.7018 30.474 34.8646 30.5182 35.0625 30.5625C35.4089 30.6406 35.694 30.7344 35.918 30.8438C36.1419 30.9531 36.3086 31.0872 36.418 31.2461C36.5273 31.4049 36.582 31.5977 36.582 31.8242C36.582 32.0091 36.543 32.1784 36.4648 32.332C36.3893 32.4857 36.2786 32.6185 36.1328 32.7305C35.9896 32.8398 35.8177 32.9258 35.6172 32.9883C35.4193 33.0482 35.1966 33.0781 34.9492 33.0781C34.5768 33.0781 34.2617 33.0117 34.0039 32.8789C33.7461 32.7461 33.5508 32.5742 33.418 32.3633C33.2852 32.1523 33.2188 31.9297 33.2188 31.6953H33.9453C33.9557 31.8932 34.013 32.0508 34.1172 32.168C34.2214 32.2826 34.349 32.3646 34.5 32.4141C34.651 32.4609 34.8008 32.4844 34.9492 32.4844C35.1471 32.4844 35.3125 32.4583 35.4453 32.4062C35.5807 32.3542 35.6836 32.2826 35.7539 32.1914C35.8242 32.1003 35.8594 31.9961 35.8594 31.8789ZM41.2695 33.0781C40.9753 33.0781 40.7083 33.0286 40.4688 32.9297C40.2318 32.8281 40.0273 32.6862 39.8555 32.5039C39.6862 32.3216 39.556 32.1055 39.4648 31.8555C39.3737 31.6055 39.3281 31.332 39.3281 31.0352V30.8711C39.3281 30.5273 39.3789 30.2214 39.4805 29.9531C39.582 29.6823 39.7201 29.4531 39.8945 29.2656C40.069 29.0781 40.2669 28.9362 40.4883 28.8398C40.7096 28.7435 40.9388 28.6953 41.1758 28.6953C41.4779 28.6953 41.7383 28.7474 41.957 28.8516C42.1784 28.9557 42.3594 29.1016 42.5 29.2891C42.6406 29.474 42.7448 29.6927 42.8125 29.9453C42.8802 30.1953 42.9141 30.4688 42.9141 30.7656V31.0898H39.7578V30.5H42.1914V30.4453C42.181 30.2578 42.1419 30.0755 42.0742 29.8984C42.0091 29.7214 41.9049 29.5755 41.7617 29.4609C41.6185 29.3464 41.4232 29.2891 41.1758 29.2891C41.0117 29.2891 40.8607 29.3242 40.7227 29.3945C40.5846 29.4622 40.4661 29.5638 40.3672 29.6992C40.2682 29.8346 40.1914 30 40.1367 30.1953C40.082 30.3906 40.0547 30.6159 40.0547 30.8711V31.0352C40.0547 31.2357 40.082 31.4245 40.1367 31.6016C40.194 31.776 40.276 31.9297 40.3828 32.0625C40.4922 32.1953 40.6237 32.2995 40.7773 32.375C40.9336 32.4505 41.1107 32.4883 41.3086 32.4883C41.5638 32.4883 41.7799 32.4362 41.957 32.332C42.1341 32.2279 42.2891 32.0885 42.4219 31.9141L42.8594 32.2617C42.7682 32.3997 42.6523 32.5312 42.5117 32.6562C42.3711 32.7812 42.1979 32.8828 41.9922 32.9609C41.7891 33.0391 41.5482 33.0781 41.2695 33.0781ZM41.3906 27L42.3594 28.0664V28.1055H41.7578L41.1719 27.4453L40.5898 28.1055H39.9961V28.0625L40.9531 27H41.3906ZM45.5273 28.7734V29.3281H43.2422V28.7734H45.5273ZM44.0156 27.7461H44.7383V31.9531C44.7383 32.0964 44.7604 32.2044 44.8047 32.2773C44.849 32.3503 44.9062 32.3984 44.9766 32.4219C45.0469 32.4453 45.1224 32.457 45.2031 32.457C45.263 32.457 45.3255 32.4518 45.3906 32.4414C45.4583 32.4284 45.5091 32.418 45.543 32.4102L45.5469 33C45.4896 33.0182 45.4141 33.0352 45.3203 33.0508C45.2292 33.069 45.1185 33.0781 44.9883 33.0781C44.8112 33.0781 44.6484 33.043 44.5 32.9727C44.3516 32.9023 44.2331 32.7852 44.1445 32.6211C44.0586 32.4544 44.0156 32.2305 44.0156 31.9492V27.7461ZM48.1289 33.0781C47.8346 33.0781 47.5677 33.0286 47.3281 32.9297C47.0911 32.8281 46.8867 32.6862 46.7148 32.5039C46.5456 32.3216 46.4154 32.1055 46.3242 31.8555C46.2331 31.6055 46.1875 31.332 46.1875 31.0352V30.8711C46.1875 30.5273 46.2383 30.2214 46.3398 29.9531C46.4414 29.6823 46.5794 29.4531 46.7539 29.2656C46.9284 29.0781 47.1263 28.9362 47.3477 28.8398C47.569 28.7435 47.7982 28.6953 48.0352 28.6953C48.3372 28.6953 48.5977 28.7474 48.8164 28.8516C49.0378 28.9557 49.2188 29.1016 49.3594 29.2891C49.5 29.474 49.6042 29.6927 49.6719 29.9453C49.7396 30.1953 49.7734 30.4688 49.7734 30.7656V31.0898H46.6172V30.5H49.0508V30.4453C49.0404 30.2578 49.0013 30.0755 48.9336 29.8984C48.8685 29.7214 48.7643 29.5755 48.6211 29.4609C48.4779 29.3464 48.2826 29.2891 48.0352 29.2891C47.8711 29.2891 47.7201 29.3242 47.582 29.3945C47.444 29.4622 47.3255 29.5638 47.2266 29.6992C47.1276 29.8346 47.0508 30 46.9961 30.1953C46.9414 30.3906 46.9141 30.6159 46.9141 30.8711V31.0352C46.9141 31.2357 46.9414 31.4245 46.9961 31.6016C47.0534 31.776 47.1354 31.9297 47.2422 32.0625C47.3516 32.1953 47.4831 32.2995 47.6367 32.375C47.793 32.4505 47.9701 32.4883 48.168 32.4883C48.4232 32.4883 48.6393 32.4362 48.8164 32.332C48.9935 32.2279 49.1484 32.0885 49.2812 31.9141L49.7188 32.2617C49.6276 32.3997 49.5117 32.5312 49.3711 32.6562C49.2305 32.7812 49.0573 32.8828 48.8516 32.9609C48.6484 33.0391 48.4076 33.0781 48.1289 33.0781ZM53.0781 31.8789C53.0781 31.7747 53.0547 31.6784 53.0078 31.5898C52.9635 31.4987 52.8711 31.4167 52.7305 31.3438C52.5924 31.2682 52.3841 31.2031 52.1055 31.1484C51.8711 31.099 51.6589 31.0404 51.4688 30.9727C51.2812 30.9049 51.1211 30.8229 50.9883 30.7266C50.8581 30.6302 50.7578 30.5169 50.6875 30.3867C50.6172 30.2565 50.582 30.1042 50.582 29.9297C50.582 29.763 50.6185 29.6055 50.6914 29.457C50.7669 29.3086 50.8724 29.1771 51.0078 29.0625C51.1458 28.9479 51.3112 28.8581 51.5039 28.793C51.6966 28.7279 51.9115 28.6953 52.1484 28.6953C52.487 28.6953 52.776 28.7552 53.0156 28.875C53.2552 28.9948 53.4388 29.1549 53.5664 29.3555C53.694 29.5534 53.7578 29.7734 53.7578 30.0156H53.0352C53.0352 29.8984 53 29.7852 52.9297 29.6758C52.862 29.5638 52.7617 29.4714 52.6289 29.3984C52.4987 29.3255 52.3385 29.2891 52.1484 29.2891C51.9479 29.2891 51.7852 29.3203 51.6602 29.3828C51.5378 29.4427 51.4479 29.5195 51.3906 29.6133C51.3359 29.707 51.3086 29.806 51.3086 29.9102C51.3086 29.9883 51.3216 30.0586 51.3477 30.1211C51.3763 30.181 51.4258 30.237 51.4961 30.2891C51.5664 30.3385 51.6654 30.3854 51.793 30.4297C51.9206 30.474 52.0833 30.5182 52.2812 30.5625C52.6276 30.6406 52.9128 30.7344 53.1367 30.8438C53.3607 30.9531 53.5273 31.0872 53.6367 31.2461C53.7461 31.4049 53.8008 31.5977 53.8008 31.8242C53.8008 32.0091 53.7617 32.1784 53.6836 32.332C53.6081 32.4857 53.4974 32.6185 53.3516 32.7305C53.2083 32.8398 53.0365 32.9258 52.8359 32.9883C52.638 33.0482 52.4154 33.0781 52.168 33.0781C51.7956 33.0781 51.4805 33.0117 51.2227 32.8789C50.9648 32.7461 50.7695 32.5742 50.6367 32.3633C50.5039 32.1523 50.4375 31.9297 50.4375 31.6953H51.1641C51.1745 31.8932 51.2318 32.0508 51.3359 32.168C51.4401 32.2826 51.5677 32.3646 51.7188 32.4141C51.8698 32.4609 52.0195 32.4844 52.168 32.4844C52.3659 32.4844 52.5312 32.4583 52.6641 32.4062C52.7995 32.3542 52.9023 32.2826 52.9727 32.1914C53.043 32.1003 53.0781 31.9961 53.0781 31.8789ZM57.5195 28.7734V33H56.793V28.7734H57.5195ZM56.7383 27.6523C56.7383 27.5352 56.7734 27.4362 56.8438 27.3555C56.9167 27.2747 57.0234 27.2344 57.1641 27.2344C57.3021 27.2344 57.4076 27.2747 57.4805 27.3555C57.556 27.4362 57.5938 27.5352 57.5938 27.6523C57.5938 27.7643 57.556 27.8607 57.4805 27.9414C57.4076 28.0195 57.3021 28.0586 57.1641 28.0586C57.0234 28.0586 56.9167 28.0195 56.8438 27.9414C56.7734 27.8607 56.7383 27.7643 56.7383 27.6523ZM59.3984 29.6133V33H58.6719V28.7734H59.3594L59.3984 29.6133ZM59.25 30.7266L58.9141 30.7148C58.9167 30.4258 58.9544 30.1589 59.0273 29.9141C59.1003 29.6667 59.2083 29.4518 59.3516 29.2695C59.4948 29.0872 59.6732 28.9466 59.8867 28.8477C60.1003 28.7461 60.3477 28.6953 60.6289 28.6953C60.8268 28.6953 61.0091 28.724 61.1758 28.7812C61.3424 28.8359 61.487 28.9232 61.6094 29.043C61.7318 29.1628 61.8268 29.3164 61.8945 29.5039C61.9622 29.6914 61.9961 29.918 61.9961 30.1836V33H61.2734V30.2188C61.2734 29.9974 61.2357 29.8203 61.1602 29.6875C61.0872 29.5547 60.9831 29.4583 60.8477 29.3984C60.7122 29.3359 60.5534 29.3047 60.3711 29.3047C60.1576 29.3047 59.9792 29.3424 59.8359 29.418C59.6927 29.4935 59.5781 29.5977 59.4922 29.7305C59.4062 29.8633 59.3438 30.0156 59.3047 30.1875C59.2682 30.3568 59.25 30.5365 59.25 30.7266ZM61.9883 30.3281L61.5039 30.4766C61.5065 30.2448 61.5443 30.0221 61.6172 29.8086C61.6927 29.5951 61.8008 29.4049 61.9414 29.2383C62.0846 29.0716 62.2604 28.9401 62.4688 28.8438C62.6771 28.7448 62.9154 28.6953 63.1836 28.6953C63.4102 28.6953 63.6107 28.7253 63.7852 28.7852C63.9622 28.8451 64.1107 28.9375 64.2305 29.0625C64.3529 29.1849 64.4453 29.3424 64.5078 29.5352C64.5703 29.7279 64.6016 29.957 64.6016 30.2227V33H63.875V30.2148C63.875 29.9779 63.8372 29.7943 63.7617 29.6641C63.6888 29.5312 63.5846 29.4388 63.4492 29.3867C63.3164 29.332 63.1576 29.3047 62.9727 29.3047C62.8138 29.3047 62.6732 29.332 62.5508 29.3867C62.4284 29.4414 62.3255 29.5169 62.2422 29.6133C62.1589 29.707 62.0951 29.8151 62.0508 29.9375C62.0091 30.0599 61.9883 30.1901 61.9883 30.3281ZM66.418 29.5859V34.625H65.6914V28.7734H66.3555L66.418 29.5859ZM69.2656 30.8516V30.9336C69.2656 31.2409 69.2292 31.526 69.1562 31.7891C69.0833 32.0495 68.9766 32.276 68.8359 32.4688C68.6979 32.6615 68.5273 32.8112 68.3242 32.918C68.1211 33.0247 67.888 33.0781 67.625 33.0781C67.3568 33.0781 67.1198 33.0339 66.9141 32.9453C66.7083 32.8568 66.5339 32.7279 66.3906 32.5586C66.2474 32.3893 66.1328 32.1862 66.0469 31.9492C65.9635 31.7122 65.9062 31.4453 65.875 31.1484V30.7109C65.9062 30.3984 65.9648 30.1185 66.0508 29.8711C66.1367 29.6237 66.25 29.4128 66.3906 29.2383C66.5339 29.0612 66.707 28.9271 66.9102 28.8359C67.1133 28.7422 67.3477 28.6953 67.6133 28.6953C67.8789 28.6953 68.1146 28.7474 68.3203 28.8516C68.526 28.9531 68.6992 29.099 68.8398 29.2891C68.9805 29.4792 69.0859 29.707 69.1562 29.9727C69.2292 30.2357 69.2656 30.5286 69.2656 30.8516ZM68.5391 30.9336V30.8516C68.5391 30.6406 68.5169 30.4427 68.4727 30.2578C68.4284 30.0703 68.3594 29.9062 68.2656 29.7656C68.1745 29.6224 68.0573 29.5104 67.9141 29.4297C67.7708 29.3464 67.6003 29.3047 67.4023 29.3047C67.2201 29.3047 67.0612 29.3359 66.9258 29.3984C66.793 29.4609 66.6797 29.5456 66.5859 29.6523C66.4922 29.7565 66.4154 29.8763 66.3555 30.0117C66.2982 30.1445 66.2552 30.2826 66.2266 30.4258V31.4375C66.2786 31.6198 66.3516 31.7917 66.4453 31.9531C66.5391 32.112 66.6641 32.2409 66.8203 32.3398C66.9766 32.4362 67.1732 32.4844 67.4102 32.4844C67.6055 32.4844 67.7734 32.444 67.9141 32.3633C68.0573 32.2799 68.1745 32.1667 68.2656 32.0234C68.3594 31.8802 68.4284 31.7161 68.4727 31.5312C68.5169 31.3438 68.5391 31.1445 68.5391 30.9336ZM69.9961 30.9336V30.8438C69.9961 30.5391 70.0404 30.2565 70.1289 29.9961C70.2174 29.7331 70.3451 29.5052 70.5117 29.3125C70.6784 29.1172 70.8802 28.9661 71.1172 28.8594C71.3542 28.75 71.6198 28.6953 71.9141 28.6953C72.2109 28.6953 72.4779 28.75 72.7148 28.8594C72.9544 28.9661 73.1576 29.1172 73.3242 29.3125C73.4935 29.5052 73.6224 29.7331 73.7109 29.9961C73.7995 30.2565 73.8438 30.5391 73.8438 30.8438V30.9336C73.8438 31.2383 73.7995 31.5208 73.7109 31.7812C73.6224 32.0417 73.4935 32.2695 73.3242 32.4648C73.1576 32.6576 72.9557 32.8086 72.7188 32.918C72.4844 33.0247 72.2188 33.0781 71.9219 33.0781C71.625 33.0781 71.3581 33.0247 71.1211 32.918C70.8841 32.8086 70.681 32.6576 70.5117 32.4648C70.3451 32.2695 70.2174 32.0417 70.1289 31.7812C70.0404 31.5208 69.9961 31.2383 69.9961 30.9336ZM70.7188 30.8438V30.9336C70.7188 31.1445 70.7435 31.3438 70.793 31.5312C70.8424 31.7161 70.9167 31.8802 71.0156 32.0234C71.1172 32.1667 71.2435 32.2799 71.3945 32.3633C71.5456 32.444 71.7214 32.4844 71.9219 32.4844C72.1198 32.4844 72.293 32.444 72.4414 32.3633C72.5924 32.2799 72.7174 32.1667 72.8164 32.0234C72.9154 31.8802 72.9896 31.7161 73.0391 31.5312C73.0911 31.3438 73.1172 31.1445 73.1172 30.9336V30.8438C73.1172 30.6354 73.0911 30.4388 73.0391 30.2539C72.9896 30.0664 72.9141 29.901 72.8125 29.7578C72.7135 29.612 72.5885 29.4974 72.4375 29.4141C72.2891 29.3307 72.1146 29.2891 71.9141 29.2891C71.7161 29.2891 71.5417 29.3307 71.3906 29.4141C71.2422 29.4974 71.1172 29.612 71.0156 29.7578C70.9167 29.901 70.8424 30.0664 70.793 30.2539C70.7435 30.4388 70.7188 30.6354 70.7188 30.8438ZM77.2109 31.8789C77.2109 31.7747 77.1875 31.6784 77.1406 31.5898C77.0964 31.4987 77.0039 31.4167 76.8633 31.3438C76.7253 31.2682 76.5169 31.2031 76.2383 31.1484C76.0039 31.099 75.7917 31.0404 75.6016 30.9727C75.4141 30.9049 75.2539 30.8229 75.1211 30.7266C74.9909 30.6302 74.8906 30.5169 74.8203 30.3867C74.75 30.2565 74.7148 30.1042 74.7148 29.9297C74.7148 29.763 74.7513 29.6055 74.8242 29.457C74.8997 29.3086 75.0052 29.1771 75.1406 29.0625C75.2786 28.9479 75.444 28.8581 75.6367 28.793C75.8294 28.7279 76.0443 28.6953 76.2812 28.6953C76.6198 28.6953 76.9089 28.7552 77.1484 28.875C77.388 28.9948 77.5716 29.1549 77.6992 29.3555C77.8268 29.5534 77.8906 29.7734 77.8906 30.0156H77.168C77.168 29.8984 77.1328 29.7852 77.0625 29.6758C76.9948 29.5638 76.8945 29.4714 76.7617 29.3984C76.6315 29.3255 76.4714 29.2891 76.2812 29.2891C76.0807 29.2891 75.918 29.3203 75.793 29.3828C75.6706 29.4427 75.5807 29.5195 75.5234 29.6133C75.4688 29.707 75.4414 29.806 75.4414 29.9102C75.4414 29.9883 75.4544 30.0586 75.4805 30.1211C75.5091 30.181 75.5586 30.237 75.6289 30.2891C75.6992 30.3385 75.7982 30.3854 75.9258 30.4297C76.0534 30.474 76.2161 30.5182 76.4141 30.5625C76.7604 30.6406 77.0456 30.7344 77.2695 30.8438C77.4935 30.9531 77.6602 31.0872 77.7695 31.2461C77.8789 31.4049 77.9336 31.5977 77.9336 31.8242C77.9336 32.0091 77.8945 32.1784 77.8164 32.332C77.7409 32.4857 77.6302 32.6185 77.4844 32.7305C77.3411 32.8398 77.1693 32.9258 76.9688 32.9883C76.7708 33.0482 76.5482 33.0781 76.3008 33.0781C75.9284 33.0781 75.6133 33.0117 75.3555 32.8789C75.0977 32.7461 74.9023 32.5742 74.7695 32.3633C74.6367 32.1523 74.5703 31.9297 74.5703 31.6953H75.2969C75.3073 31.8932 75.3646 32.0508 75.4688 32.168C75.5729 32.2826 75.7005 32.3646 75.8516 32.4141C76.0026 32.4609 76.1523 32.4844 76.3008 32.4844C76.4987 32.4844 76.6641 32.4583 76.7969 32.4062C76.9323 32.3542 77.0352 32.2826 77.1055 32.1914C77.1758 32.1003 77.2109 31.9961 77.2109 31.8789ZM80.6367 33.0781C80.3424 33.0781 80.0755 33.0286 79.8359 32.9297C79.599 32.8281 79.3945 32.6862 79.2227 32.5039C79.0534 32.3216 78.9232 32.1055 78.832 31.8555C78.7409 31.6055 78.6953 31.332 78.6953 31.0352V30.8711C78.6953 30.5273 78.7461 30.2214 78.8477 29.9531C78.9492 29.6823 79.0872 29.4531 79.2617 29.2656C79.4362 29.0781 79.6341 28.9362 79.8555 28.8398C80.0768 28.7435 80.306 28.6953 80.543 28.6953C80.8451 28.6953 81.1055 28.7474 81.3242 28.8516C81.5456 28.9557 81.7266 29.1016 81.8672 29.2891C82.0078 29.474 82.112 29.6927 82.1797 29.9453C82.2474 30.1953 82.2812 30.4688 82.2812 30.7656V31.0898H79.125V30.5H81.5586V30.4453C81.5482 30.2578 81.5091 30.0755 81.4414 29.8984C81.3763 29.7214 81.2721 29.5755 81.1289 29.4609C80.9857 29.3464 80.7904 29.2891 80.543 29.2891C80.3789 29.2891 80.2279 29.3242 80.0898 29.3945C79.9518 29.4622 79.8333 29.5638 79.7344 29.6992C79.6354 29.8346 79.5586 30 79.5039 30.1953C79.4492 30.3906 79.4219 30.6159 79.4219 30.8711V31.0352C79.4219 31.2357 79.4492 31.4245 79.5039 31.6016C79.5612 31.776 79.6432 31.9297 79.75 32.0625C79.8594 32.1953 79.9909 32.2995 80.1445 32.375C80.3008 32.4505 80.4779 32.4883 80.6758 32.4883C80.931 32.4883 81.1471 32.4362 81.3242 32.332C81.5013 32.2279 81.6562 32.0885 81.7891 31.9141L82.2266 32.2617C82.1354 32.3997 82.0195 32.5312 81.8789 32.6562C81.7383 32.7812 81.5651 32.8828 81.3594 32.9609C81.1562 33.0391 80.9154 33.0781 80.6367 33.0781ZM80.1406 28.1484L80.8984 27H81.7695L80.7227 28.1484H80.1406ZM85.832 29.5859V34.625H85.1055V28.7734H85.7695L85.832 29.5859ZM88.6797 30.8516V30.9336C88.6797 31.2409 88.6432 31.526 88.5703 31.7891C88.4974 32.0495 88.3906 32.276 88.25 32.4688C88.112 32.6615 87.9414 32.8112 87.7383 32.918C87.5352 33.0247 87.3021 33.0781 87.0391 33.0781C86.7708 33.0781 86.5339 33.0339 86.3281 32.9453C86.1224 32.8568 85.9479 32.7279 85.8047 32.5586C85.6615 32.3893 85.5469 32.1862 85.4609 31.9492C85.3776 31.7122 85.3203 31.4453 85.2891 31.1484V30.7109C85.3203 30.3984 85.3789 30.1185 85.4648 29.8711C85.5508 29.6237 85.6641 29.4128 85.8047 29.2383C85.9479 29.0612 86.1211 28.9271 86.3242 28.8359C86.5273 28.7422 86.7617 28.6953 87.0273 28.6953C87.293 28.6953 87.5286 28.7474 87.7344 28.8516C87.9401 28.9531 88.1133 29.099 88.2539 29.2891C88.3945 29.4792 88.5 29.707 88.5703 29.9727C88.6432 30.2357 88.6797 30.5286 88.6797 30.8516ZM87.9531 30.9336V30.8516C87.9531 30.6406 87.931 30.4427 87.8867 30.2578C87.8424 30.0703 87.7734 29.9062 87.6797 29.7656C87.5885 29.6224 87.4714 29.5104 87.3281 29.4297C87.1849 29.3464 87.0143 29.3047 86.8164 29.3047C86.6341 29.3047 86.4753 29.3359 86.3398 29.3984C86.207 29.4609 86.0938 29.5456 86 29.6523C85.9062 29.7565 85.8294 29.8763 85.7695 30.0117C85.7122 30.1445 85.6693 30.2826 85.6406 30.4258V31.4375C85.6927 31.6198 85.7656 31.7917 85.8594 31.9531C85.9531 32.112 86.0781 32.2409 86.2344 32.3398C86.3906 32.4362 86.5872 32.4844 86.8242 32.4844C87.0195 32.4844 87.1875 32.444 87.3281 32.3633C87.4714 32.2799 87.5885 32.1667 87.6797 32.0234C87.7734 31.8802 87.8424 31.7161 87.8867 31.5312C87.931 31.3438 87.9531 31.1445 87.9531 30.9336ZM89.4102 30.9336V30.8438C89.4102 30.5391 89.4544 30.2565 89.543 29.9961C89.6315 29.7331 89.7591 29.5052 89.9258 29.3125C90.0924 29.1172 90.2943 28.9661 90.5312 28.8594C90.7682 28.75 91.0339 28.6953 91.3281 28.6953C91.625 28.6953 91.8919 28.75 92.1289 28.8594C92.3685 28.9661 92.5716 29.1172 92.7383 29.3125C92.9076 29.5052 93.0365 29.7331 93.125 29.9961C93.2135 30.2565 93.2578 30.5391 93.2578 30.8438V30.9336C93.2578 31.2383 93.2135 31.5208 93.125 31.7812C93.0365 32.0417 92.9076 32.2695 92.7383 32.4648C92.5716 32.6576 92.3698 32.8086 92.1328 32.918C91.8984 33.0247 91.6328 33.0781 91.3359 33.0781C91.0391 33.0781 90.7721 33.0247 90.5352 32.918C90.2982 32.8086 90.0951 32.6576 89.9258 32.4648C89.7591 32.2695 89.6315 32.0417 89.543 31.7812C89.4544 31.5208 89.4102 31.2383 89.4102 30.9336ZM90.1328 30.8438V30.9336C90.1328 31.1445 90.1576 31.3438 90.207 31.5312C90.2565 31.7161 90.3307 31.8802 90.4297 32.0234C90.5312 32.1667 90.6576 32.2799 90.8086 32.3633C90.9596 32.444 91.1354 32.4844 91.3359 32.4844C91.5339 32.4844 91.707 32.444 91.8555 32.3633C92.0065 32.2799 92.1315 32.1667 92.2305 32.0234C92.3294 31.8802 92.4036 31.7161 92.4531 31.5312C92.5052 31.3438 92.5312 31.1445 92.5312 30.9336V30.8438C92.5312 30.6354 92.5052 30.4388 92.4531 30.2539C92.4036 30.0664 92.3281 29.901 92.2266 29.7578C92.1276 29.612 92.0026 29.4974 91.8516 29.4141C91.7031 29.3307 91.5286 29.2891 91.3281 29.2891C91.1302 29.2891 90.9557 29.3307 90.8047 29.4141C90.6562 29.4974 90.5312 29.612 90.4297 29.7578C90.3307 29.901 90.2565 30.0664 90.207 30.2539C90.1576 30.4388 90.1328 30.6354 90.1328 30.8438ZM96.75 32.0234V28.7734H97.4766V33H96.7852L96.75 32.0234ZM96.8867 31.1328L97.1875 31.125C97.1875 31.4062 97.1576 31.6667 97.0977 31.9062C97.0404 32.1432 96.9466 32.349 96.8164 32.5234C96.6862 32.6979 96.5156 32.8346 96.3047 32.9336C96.0938 33.0299 95.8372 33.0781 95.5352 33.0781C95.3294 33.0781 95.1406 33.0482 94.9688 32.9883C94.7995 32.9284 94.6536 32.8359 94.5312 32.7109C94.4089 32.5859 94.3138 32.4232 94.2461 32.2227C94.181 32.0221 94.1484 31.7812 94.1484 31.5V28.7734H94.8711V31.5078C94.8711 31.6979 94.8919 31.8555 94.9336 31.9805C94.9779 32.1029 95.0365 32.2005 95.1094 32.2734C95.1849 32.3438 95.2682 32.3932 95.3594 32.4219C95.4531 32.4505 95.5495 32.4648 95.6484 32.4648C95.9557 32.4648 96.1992 32.4062 96.3789 32.2891C96.5586 32.1693 96.6875 32.0091 96.7656 31.8086C96.8464 31.6055 96.8867 31.3802 96.8867 31.1328ZM99.3008 29.4375V33H98.5781V28.7734H99.2812L99.3008 29.4375ZM100.621 28.75L100.617 29.4219C100.557 29.4089 100.5 29.401 100.445 29.3984C100.393 29.3932 100.333 29.3906 100.266 29.3906C100.099 29.3906 99.9518 29.4167 99.8242 29.4688C99.6966 29.5208 99.5885 29.5938 99.5 29.6875C99.4115 29.7812 99.3411 29.8932 99.2891 30.0234C99.2396 30.151 99.207 30.2917 99.1914 30.4453L98.9883 30.5625C98.9883 30.3073 99.013 30.0677 99.0625 29.8438C99.1146 29.6198 99.194 29.4219 99.3008 29.25C99.4076 29.0755 99.543 28.9401 99.707 28.8438C99.8737 28.7448 100.072 28.6953 100.301 28.6953C100.353 28.6953 100.413 28.7018 100.48 28.7148C100.548 28.7253 100.595 28.737 100.621 28.75ZM104.059 27V33H103.332V27H104.059ZM106.973 33.0781C106.678 33.0781 106.411 33.0286 106.172 32.9297C105.935 32.8281 105.73 32.6862 105.559 32.5039C105.389 32.3216 105.259 32.1055 105.168 31.8555C105.077 31.6055 105.031 31.332 105.031 31.0352V30.8711C105.031 30.5273 105.082 30.2214 105.184 29.9531C105.285 29.6823 105.423 29.4531 105.598 29.2656C105.772 29.0781 105.97 28.9362 106.191 28.8398C106.413 28.7435 106.642 28.6953 106.879 28.6953C107.181 28.6953 107.441 28.7474 107.66 28.8516C107.882 28.9557 108.062 29.1016 108.203 29.2891C108.344 29.474 108.448 29.6927 108.516 29.9453C108.583 30.1953 108.617 30.4688 108.617 30.7656V31.0898H105.461V30.5H107.895V30.4453C107.884 30.2578 107.845 30.0755 107.777 29.8984C107.712 29.7214 107.608 29.5755 107.465 29.4609C107.322 29.3464 107.126 29.2891 106.879 29.2891C106.715 29.2891 106.564 29.3242 106.426 29.3945C106.288 29.4622 106.169 29.5638 106.07 29.6992C105.971 29.8346 105.895 30 105.84 30.1953C105.785 30.3906 105.758 30.6159 105.758 30.8711V31.0352C105.758 31.2357 105.785 31.4245 105.84 31.6016C105.897 31.776 105.979 31.9297 106.086 32.0625C106.195 32.1953 106.327 32.2995 106.48 32.375C106.637 32.4505 106.814 32.4883 107.012 32.4883C107.267 32.4883 107.483 32.4362 107.66 32.332C107.837 32.2279 107.992 32.0885 108.125 31.9141L108.562 32.2617C108.471 32.3997 108.355 32.5312 108.215 32.6562C108.074 32.7812 107.901 32.8828 107.695 32.9609C107.492 33.0391 107.251 33.0781 106.973 33.0781ZM111.922 31.8789C111.922 31.7747 111.898 31.6784 111.852 31.5898C111.807 31.4987 111.715 31.4167 111.574 31.3438C111.436 31.2682 111.228 31.2031 110.949 31.1484C110.715 31.099 110.503 31.0404 110.312 30.9727C110.125 30.9049 109.965 30.8229 109.832 30.7266C109.702 30.6302 109.602 30.5169 109.531 30.3867C109.461 30.2565 109.426 30.1042 109.426 29.9297C109.426 29.763 109.462 29.6055 109.535 29.457C109.611 29.3086 109.716 29.1771 109.852 29.0625C109.99 28.9479 110.155 28.8581 110.348 28.793C110.54 28.7279 110.755 28.6953 110.992 28.6953C111.331 28.6953 111.62 28.7552 111.859 28.875C112.099 28.9948 112.283 29.1549 112.41 29.3555C112.538 29.5534 112.602 29.7734 112.602 30.0156H111.879C111.879 29.8984 111.844 29.7852 111.773 29.6758C111.706 29.5638 111.605 29.4714 111.473 29.3984C111.342 29.3255 111.182 29.2891 110.992 29.2891C110.792 29.2891 110.629 29.3203 110.504 29.3828C110.382 29.4427 110.292 29.5195 110.234 29.6133C110.18 29.707 110.152 29.806 110.152 29.9102C110.152 29.9883 110.165 30.0586 110.191 30.1211C110.22 30.181 110.27 30.237 110.34 30.2891C110.41 30.3385 110.509 30.3854 110.637 30.4297C110.764 30.474 110.927 30.5182 111.125 30.5625C111.471 30.6406 111.757 30.7344 111.98 30.8438C112.204 30.9531 112.371 31.0872 112.48 31.2461C112.59 31.4049 112.645 31.5977 112.645 31.8242C112.645 32.0091 112.605 32.1784 112.527 32.332C112.452 32.4857 112.341 32.6185 112.195 32.7305C112.052 32.8398 111.88 32.9258 111.68 32.9883C111.482 33.0482 111.259 33.0781 111.012 33.0781C110.639 33.0781 110.324 33.0117 110.066 32.8789C109.809 32.7461 109.613 32.5742 109.48 32.3633C109.348 32.1523 109.281 31.9297 109.281 31.6953H110.008C110.018 31.8932 110.076 32.0508 110.18 32.168C110.284 32.2826 110.411 32.3646 110.562 32.4141C110.714 32.4609 110.863 32.4844 111.012 32.4844C111.21 32.4844 111.375 32.4583 111.508 32.4062C111.643 32.3542 111.746 32.2826 111.816 32.1914C111.887 32.1003 111.922 31.9961 111.922 31.8789ZM15.0117 38.4375V42H14.2891V37.7734H14.9922L15.0117 38.4375ZM16.332 37.75L16.3281 38.4219C16.2682 38.4089 16.2109 38.401 16.1562 38.3984C16.1042 38.3932 16.0443 38.3906 15.9766 38.3906C15.8099 38.3906 15.6628 38.4167 15.5352 38.4688C15.4076 38.5208 15.2995 38.5938 15.2109 38.6875C15.1224 38.7812 15.0521 38.8932 15 39.0234C14.9505 39.151 14.918 39.2917 14.9023 39.4453L14.6992 39.5625C14.6992 39.3073 14.724 39.0677 14.7734 38.8438C14.8255 38.6198 14.9049 38.4219 15.0117 38.25C15.1185 38.0755 15.2539 37.9401 15.418 37.8438C15.5846 37.7448 15.7826 37.6953 16.0117 37.6953C16.0638 37.6953 16.1237 37.7018 16.1914 37.7148C16.2591 37.7253 16.306 37.737 16.332 37.75ZM18.6758 42.0781C18.3815 42.0781 18.1146 42.0286 17.875 41.9297C17.638 41.8281 17.4336 41.6862 17.2617 41.5039C17.0924 41.3216 16.9622 41.1055 16.8711 40.8555C16.7799 40.6055 16.7344 40.332 16.7344 40.0352V39.8711C16.7344 39.5273 16.7852 39.2214 16.8867 38.9531C16.9883 38.6823 17.1263 38.4531 17.3008 38.2656C17.4753 38.0781 17.6732 37.9362 17.8945 37.8398C18.1159 37.7435 18.3451 37.6953 18.582 37.6953C18.8841 37.6953 19.1445 37.7474 19.3633 37.8516C19.5846 37.9557 19.7656 38.1016 19.9062 38.2891C20.0469 38.474 20.151 38.6927 20.2188 38.9453C20.2865 39.1953 20.3203 39.4688 20.3203 39.7656V40.0898H17.1641V39.5H19.5977V39.4453C19.5872 39.2578 19.5482 39.0755 19.4805 38.8984C19.4154 38.7214 19.3112 38.5755 19.168 38.4609C19.0247 38.3464 18.8294 38.2891 18.582 38.2891C18.418 38.2891 18.2669 38.3242 18.1289 38.3945C17.9909 38.4622 17.8724 38.5638 17.7734 38.6992C17.6745 38.8346 17.5977 39 17.543 39.1953C17.4883 39.3906 17.4609 39.6159 17.4609 39.8711V40.0352C17.4609 40.2357 17.4883 40.4245 17.543 40.6016C17.6003 40.776 17.6823 40.9297 17.7891 41.0625C17.8984 41.1953 18.0299 41.2995 18.1836 41.375C18.3398 41.4505 18.5169 41.4883 18.7148 41.4883C18.9701 41.4883 19.1862 41.4362 19.3633 41.332C19.5404 41.2279 19.6953 41.0885 19.8281 40.9141L20.2656 41.2617C20.1745 41.3997 20.0586 41.5312 19.918 41.6562C19.7773 41.7812 19.6042 41.8828 19.3984 41.9609C19.1953 42.0391 18.9544 42.0781 18.6758 42.0781ZM18.1797 37.1484L18.9375 36H19.8086L18.7617 37.1484H18.1797ZM21.8867 38.5859V43.625H21.1602V37.7734H21.8242L21.8867 38.5859ZM24.7344 39.8516V39.9336C24.7344 40.2409 24.6979 40.526 24.625 40.7891C24.5521 41.0495 24.4453 41.276 24.3047 41.4688C24.1667 41.6615 23.9961 41.8112 23.793 41.918C23.5898 42.0247 23.3568 42.0781 23.0938 42.0781C22.8255 42.0781 22.5885 42.0339 22.3828 41.9453C22.1771 41.8568 22.0026 41.7279 21.8594 41.5586C21.7161 41.3893 21.6016 41.1862 21.5156 40.9492C21.4323 40.7122 21.375 40.4453 21.3438 40.1484V39.7109C21.375 39.3984 21.4336 39.1185 21.5195 38.8711C21.6055 38.6237 21.7188 38.4128 21.8594 38.2383C22.0026 38.0612 22.1758 37.9271 22.3789 37.8359C22.582 37.7422 22.8164 37.6953 23.082 37.6953C23.3477 37.6953 23.5833 37.7474 23.7891 37.8516C23.9948 37.9531 24.168 38.099 24.3086 38.2891C24.4492 38.4792 24.5547 38.707 24.625 38.9727C24.6979 39.2357 24.7344 39.5286 24.7344 39.8516ZM24.0078 39.9336V39.8516C24.0078 39.6406 23.9857 39.4427 23.9414 39.2578C23.8971 39.0703 23.8281 38.9062 23.7344 38.7656C23.6432 38.6224 23.526 38.5104 23.3828 38.4297C23.2396 38.3464 23.069 38.3047 22.8711 38.3047C22.6888 38.3047 22.5299 38.3359 22.3945 38.3984C22.2617 38.4609 22.1484 38.5456 22.0547 38.6523C21.9609 38.7565 21.8841 38.8763 21.8242 39.0117C21.7669 39.1445 21.724 39.2826 21.6953 39.4258V40.4375C21.7474 40.6198 21.8203 40.7917 21.9141 40.9531C22.0078 41.112 22.1328 41.2409 22.2891 41.3398C22.4453 41.4362 22.6419 41.4844 22.8789 41.4844C23.0742 41.4844 23.2422 41.444 23.3828 41.3633C23.526 41.2799 23.6432 41.1667 23.7344 41.0234C23.8281 40.8802 23.8971 40.7161 23.9414 40.5312C23.9857 40.3438 24.0078 40.1445 24.0078 39.9336ZM28.1484 41.2773V39.1016C28.1484 38.9349 28.1146 38.7904 28.0469 38.668C27.9818 38.543 27.8828 38.4466 27.75 38.3789C27.6172 38.3112 27.4531 38.2773 27.2578 38.2773C27.0755 38.2773 26.9154 38.3086 26.7773 38.3711C26.6419 38.4336 26.5352 38.5156 26.457 38.6172C26.3815 38.7188 26.3438 38.8281 26.3438 38.9453H25.6211C25.6211 38.7943 25.6602 38.6445 25.7383 38.4961C25.8164 38.3477 25.9284 38.2135 26.0742 38.0938C26.2227 37.9714 26.3997 37.875 26.6055 37.8047C26.8138 37.7318 27.0456 37.6953 27.3008 37.6953C27.6081 37.6953 27.8789 37.7474 28.1133 37.8516C28.3503 37.9557 28.5352 38.1133 28.668 38.3242C28.8034 38.5326 28.8711 38.7943 28.8711 39.1094V41.0781C28.8711 41.2188 28.8828 41.3685 28.9062 41.5273C28.9323 41.6862 28.9701 41.8229 29.0195 41.9375V42H28.2656C28.2292 41.9167 28.2005 41.806 28.1797 41.668C28.1589 41.5273 28.1484 41.3971 28.1484 41.2773ZM28.2734 39.4375L28.2812 39.9453H27.5508C27.3451 39.9453 27.1615 39.9622 27 39.9961C26.8385 40.0273 26.7031 40.0755 26.5938 40.1406C26.4844 40.2057 26.401 40.2878 26.3438 40.3867C26.2865 40.4831 26.2578 40.5964 26.2578 40.7266C26.2578 40.8594 26.2878 40.9805 26.3477 41.0898C26.4076 41.1992 26.4974 41.2865 26.6172 41.3516C26.7396 41.4141 26.8893 41.4453 27.0664 41.4453C27.2878 41.4453 27.4831 41.3984 27.6523 41.3047C27.8216 41.2109 27.9557 41.0964 28.0547 40.9609C28.1562 40.8255 28.2109 40.694 28.2188 40.5664L28.5273 40.9141C28.5091 41.0234 28.4596 41.1445 28.3789 41.2773C28.2982 41.4102 28.1901 41.5378 28.0547 41.6602C27.9219 41.7799 27.763 41.8802 27.5781 41.9609C27.3958 42.0391 27.1901 42.0781 26.9609 42.0781C26.6745 42.0781 26.4232 42.0221 26.207 41.9102C25.9935 41.7982 25.8268 41.6484 25.707 41.4609C25.5898 41.2708 25.5312 41.0586 25.5312 40.8242C25.5312 40.5977 25.5755 40.3984 25.6641 40.2266C25.7526 40.0521 25.8802 39.9076 26.0469 39.793C26.2135 39.6758 26.4141 39.5872 26.6484 39.5273C26.8828 39.4674 27.1445 39.4375 27.4336 39.4375H28.2734ZM30.7305 38.4375V42H30.0078V37.7734H30.7109L30.7305 38.4375ZM32.0508 37.75L32.0469 38.4219C31.987 38.4089 31.9297 38.401 31.875 38.3984C31.8229 38.3932 31.763 38.3906 31.6953 38.3906C31.5286 38.3906 31.3815 38.4167 31.2539 38.4688C31.1263 38.5208 31.0182 38.5938 30.9297 38.6875C30.8411 38.7812 30.7708 38.8932 30.7188 39.0234C30.6693 39.151 30.6367 39.2917 30.6211 39.4453L30.418 39.5625C30.418 39.3073 30.4427 39.0677 30.4922 38.8438C30.5443 38.6198 30.6237 38.4219 30.7305 38.25C30.8372 38.0755 30.9727 37.9401 31.1367 37.8438C31.3034 37.7448 31.5013 37.6953 31.7305 37.6953C31.7826 37.6953 31.8424 37.7018 31.9102 37.7148C31.9779 37.7253 32.0247 37.737 32.0508 37.75ZM35.0547 41.2773V39.1016C35.0547 38.9349 35.0208 38.7904 34.9531 38.668C34.888 38.543 34.7891 38.4466 34.6562 38.3789C34.5234 38.3112 34.3594 38.2773 34.1641 38.2773C33.9818 38.2773 33.8216 38.3086 33.6836 38.3711C33.5482 38.4336 33.4414 38.5156 33.3633 38.6172C33.2878 38.7188 33.25 38.8281 33.25 38.9453H32.5273C32.5273 38.7943 32.5664 38.6445 32.6445 38.4961C32.7227 38.3477 32.8346 38.2135 32.9805 38.0938C33.1289 37.9714 33.306 37.875 33.5117 37.8047C33.7201 37.7318 33.9518 37.6953 34.207 37.6953C34.5143 37.6953 34.7852 37.7474 35.0195 37.8516C35.2565 37.9557 35.4414 38.1133 35.5742 38.3242C35.7096 38.5326 35.7773 38.7943 35.7773 39.1094V41.0781C35.7773 41.2188 35.7891 41.3685 35.8125 41.5273C35.8385 41.6862 35.8763 41.8229 35.9258 41.9375V42H35.1719C35.1354 41.9167 35.1068 41.806 35.0859 41.668C35.0651 41.5273 35.0547 41.3971 35.0547 41.2773ZM35.1797 39.4375L35.1875 39.9453H34.457C34.2513 39.9453 34.0677 39.9622 33.9062 39.9961C33.7448 40.0273 33.6094 40.0755 33.5 40.1406C33.3906 40.2057 33.3073 40.2878 33.25 40.3867C33.1927 40.4831 33.1641 40.5964 33.1641 40.7266C33.1641 40.8594 33.194 40.9805 33.2539 41.0898C33.3138 41.1992 33.4036 41.2865 33.5234 41.3516C33.6458 41.4141 33.7956 41.4453 33.9727 41.4453C34.194 41.4453 34.3893 41.3984 34.5586 41.3047C34.7279 41.2109 34.862 41.0964 34.9609 40.9609C35.0625 40.8255 35.1172 40.694 35.125 40.5664L35.4336 40.9141C35.4154 41.0234 35.3659 41.1445 35.2852 41.2773C35.2044 41.4102 35.0964 41.5378 34.9609 41.6602C34.8281 41.7799 34.6693 41.8802 34.4844 41.9609C34.3021 42.0391 34.0964 42.0781 33.8672 42.0781C33.5807 42.0781 33.3294 42.0221 33.1133 41.9102C32.8997 41.7982 32.7331 41.6484 32.6133 41.4609C32.4961 41.2708 32.4375 41.0586 32.4375 40.8242C32.4375 40.5977 32.4818 40.3984 32.5703 40.2266C32.6589 40.0521 32.7865 39.9076 32.9531 39.793C33.1198 39.6758 33.3203 39.5872 33.5547 39.5273C33.7891 39.4674 34.0508 39.4375 34.3398 39.4375H35.1797ZM38.6836 37.7734V38.3281H36.3984V37.7734H38.6836ZM37.1719 36.7461H37.8945V40.9531C37.8945 41.0964 37.9167 41.2044 37.9609 41.2773C38.0052 41.3503 38.0625 41.3984 38.1328 41.4219C38.2031 41.4453 38.2786 41.457 38.3594 41.457C38.4193 41.457 38.4818 41.4518 38.5469 41.4414C38.6146 41.4284 38.6654 41.418 38.6992 41.4102L38.7031 42C38.6458 42.0182 38.5703 42.0352 38.4766 42.0508C38.3854 42.069 38.2747 42.0781 38.1445 42.0781C37.9674 42.0781 37.8047 42.043 37.6562 41.9727C37.5078 41.9023 37.3893 41.7852 37.3008 41.6211C37.2148 41.4544 37.1719 41.2305 37.1719 40.9492V36.7461ZM40.3164 37.7734V42H39.5898V37.7734H40.3164ZM39.5352 36.6523C39.5352 36.5352 39.5703 36.4362 39.6406 36.3555C39.7135 36.2747 39.8203 36.2344 39.9609 36.2344C40.099 36.2344 40.2044 36.2747 40.2773 36.3555C40.3529 36.4362 40.3906 36.5352 40.3906 36.6523C40.3906 36.7643 40.3529 36.8607 40.2773 36.9414C40.2044 37.0195 40.099 37.0586 39.9609 37.0586C39.8203 37.0586 39.7135 37.0195 39.6406 36.9414C39.5703 36.8607 39.5352 36.7643 39.5352 36.6523ZM41.2852 39.9336V39.8438C41.2852 39.5391 41.3294 39.2565 41.418 38.9961C41.5065 38.7331 41.6341 38.5052 41.8008 38.3125C41.9674 38.1172 42.1693 37.9661 42.4062 37.8594C42.6432 37.75 42.9089 37.6953 43.2031 37.6953C43.5 37.6953 43.7669 37.75 44.0039 37.8594C44.2435 37.9661 44.4466 38.1172 44.6133 38.3125C44.7826 38.5052 44.9115 38.7331 45 38.9961C45.0885 39.2565 45.1328 39.5391 45.1328 39.8438V39.9336C45.1328 40.2383 45.0885 40.5208 45 40.7812C44.9115 41.0417 44.7826 41.2695 44.6133 41.4648C44.4466 41.6576 44.2448 41.8086 44.0078 41.918C43.7734 42.0247 43.5078 42.0781 43.2109 42.0781C42.9141 42.0781 42.6471 42.0247 42.4102 41.918C42.1732 41.8086 41.9701 41.6576 41.8008 41.4648C41.6341 41.2695 41.5065 41.0417 41.418 40.7812C41.3294 40.5208 41.2852 40.2383 41.2852 39.9336ZM42.0078 39.8438V39.9336C42.0078 40.1445 42.0326 40.3438 42.082 40.5312C42.1315 40.7161 42.2057 40.8802 42.3047 41.0234C42.4062 41.1667 42.5326 41.2799 42.6836 41.3633C42.8346 41.444 43.0104 41.4844 43.2109 41.4844C43.4089 41.4844 43.582 41.444 43.7305 41.3633C43.8815 41.2799 44.0065 41.1667 44.1055 41.0234C44.2044 40.8802 44.2786 40.7161 44.3281 40.5312C44.3802 40.3438 44.4062 40.1445 44.4062 39.9336V39.8438C44.4062 39.6354 44.3802 39.4388 44.3281 39.2539C44.2786 39.0664 44.2031 38.901 44.1016 38.7578C44.0026 38.612 43.8776 38.4974 43.7266 38.4141C43.5781 38.3307 43.4036 38.2891 43.2031 38.2891C43.0052 38.2891 42.8307 38.3307 42.6797 38.4141C42.5312 38.4974 42.4062 38.612 42.3047 38.7578C42.2057 38.901 42.1315 39.0664 42.082 39.2539C42.0326 39.4388 42.0078 39.6354 42.0078 39.8438ZM46.7617 38.6758V42H46.0391V37.7734H46.7227L46.7617 38.6758ZM46.5898 39.7266L46.2891 39.7148C46.2917 39.4258 46.3346 39.1589 46.418 38.9141C46.5013 38.6667 46.6185 38.4518 46.7695 38.2695C46.9206 38.0872 47.1003 37.9466 47.3086 37.8477C47.5195 37.7461 47.7526 37.6953 48.0078 37.6953C48.2161 37.6953 48.4036 37.724 48.5703 37.7812C48.737 37.8359 48.8789 37.9245 48.9961 38.0469C49.1159 38.1693 49.207 38.3281 49.2695 38.5234C49.332 38.7161 49.3633 38.9518 49.3633 39.2305V42H48.6367V39.2227C48.6367 39.0013 48.6042 38.8242 48.5391 38.6914C48.474 38.556 48.3789 38.4583 48.2539 38.3984C48.1289 38.3359 47.9753 38.3047 47.793 38.3047C47.6133 38.3047 47.4492 38.3424 47.3008 38.418C47.1549 38.4935 47.0286 38.5977 46.9219 38.7305C46.8177 38.8633 46.7357 39.0156 46.6758 39.1875C46.6185 39.3568 46.5898 39.5365 46.5898 39.7266ZM52.9219 40.8789C52.9219 40.7747 52.8984 40.6784 52.8516 40.5898C52.8073 40.4987 52.7148 40.4167 52.5742 40.3438C52.4362 40.2682 52.2279 40.2031 51.9492 40.1484C51.7148 40.099 51.5026 40.0404 51.3125 39.9727C51.125 39.9049 50.9648 39.8229 50.832 39.7266C50.7018 39.6302 50.6016 39.5169 50.5312 39.3867C50.4609 39.2565 50.4258 39.1042 50.4258 38.9297C50.4258 38.763 50.4622 38.6055 50.5352 38.457C50.6107 38.3086 50.7161 38.1771 50.8516 38.0625C50.9896 37.9479 51.1549 37.8581 51.3477 37.793C51.5404 37.7279 51.7552 37.6953 51.9922 37.6953C52.3307 37.6953 52.6198 37.7552 52.8594 37.875C53.099 37.9948 53.2826 38.1549 53.4102 38.3555C53.5378 38.5534 53.6016 38.7734 53.6016 39.0156H52.8789C52.8789 38.8984 52.8438 38.7852 52.7734 38.6758C52.7057 38.5638 52.6055 38.4714 52.4727 38.3984C52.3424 38.3255 52.1823 38.2891 51.9922 38.2891C51.7917 38.2891 51.6289 38.3203 51.5039 38.3828C51.3815 38.4427 51.2917 38.5195 51.2344 38.6133C51.1797 38.707 51.1523 38.806 51.1523 38.9102C51.1523 38.9883 51.1654 39.0586 51.1914 39.1211C51.2201 39.181 51.2695 39.237 51.3398 39.2891C51.4102 39.3385 51.5091 39.3854 51.6367 39.4297C51.7643 39.474 51.9271 39.5182 52.125 39.5625C52.4714 39.6406 52.7565 39.7344 52.9805 39.8438C53.2044 39.9531 53.3711 40.0872 53.4805 40.2461C53.5898 40.4049 53.6445 40.5977 53.6445 40.8242C53.6445 41.0091 53.6055 41.1784 53.5273 41.332C53.4518 41.4857 53.3411 41.6185 53.1953 41.7305C53.0521 41.8398 52.8802 41.9258 52.6797 41.9883C52.4818 42.0482 52.2591 42.0781 52.0117 42.0781C51.6393 42.0781 51.3242 42.0117 51.0664 41.8789C50.8086 41.7461 50.6133 41.5742 50.4805 41.3633C50.3477 41.1523 50.2812 40.9297 50.2812 40.6953H51.0078C51.0182 40.8932 51.0755 41.0508 51.1797 41.168C51.2839 41.2826 51.4115 41.3646 51.5625 41.4141C51.7135 41.4609 51.8633 41.4844 52.0117 41.4844C52.2096 41.4844 52.375 41.4583 52.5078 41.4062C52.6432 41.3542 52.7461 41.2826 52.8164 41.1914C52.8867 41.1003 52.9219 40.9961 52.9219 40.8789ZM59.2422 41.1797V36H59.9688V42H59.3047L59.2422 41.1797ZM56.3984 39.9336V39.8516C56.3984 39.5286 56.4375 39.2357 56.5156 38.9727C56.5964 38.707 56.7096 38.4792 56.8555 38.2891C57.0039 38.099 57.1797 37.9531 57.3828 37.8516C57.5885 37.7474 57.8177 37.6953 58.0703 37.6953C58.3359 37.6953 58.5677 37.7422 58.7656 37.8359C58.9661 37.9271 59.1354 38.0612 59.2734 38.2383C59.4141 38.4128 59.5247 38.6237 59.6055 38.8711C59.6862 39.1185 59.7422 39.3984 59.7734 39.7109V40.0703C59.7448 40.3802 59.6888 40.6589 59.6055 40.9062C59.5247 41.1536 59.4141 41.3646 59.2734 41.5391C59.1354 41.7135 58.9661 41.8477 58.7656 41.9414C58.5651 42.0326 58.3307 42.0781 58.0625 42.0781C57.8151 42.0781 57.5885 42.0247 57.3828 41.918C57.1797 41.8112 57.0039 41.6615 56.8555 41.4688C56.7096 41.276 56.5964 41.0495 56.5156 40.7891C56.4375 40.526 56.3984 40.2409 56.3984 39.9336ZM57.125 39.8516V39.9336C57.125 40.1445 57.1458 40.3424 57.1875 40.5273C57.2318 40.7122 57.2995 40.875 57.3906 41.0156C57.4818 41.1562 57.5977 41.2669 57.7383 41.3477C57.8789 41.4258 58.0469 41.4648 58.2422 41.4648C58.4818 41.4648 58.6784 41.4141 58.832 41.3125C58.9883 41.2109 59.1133 41.0768 59.207 40.9102C59.3008 40.7435 59.3737 40.5625 59.4258 40.3672V39.4258C59.3945 39.2826 59.349 39.1445 59.2891 39.0117C59.2318 38.8763 59.1562 38.7565 59.0625 38.6523C58.9714 38.5456 58.8581 38.4609 58.7227 38.3984C58.5898 38.3359 58.4323 38.3047 58.25 38.3047C58.0521 38.3047 57.8815 38.3464 57.7383 38.4297C57.5977 38.5104 57.4818 38.6224 57.3906 38.7656C57.2995 38.9062 57.2318 39.0703 57.1875 39.2578C57.1458 39.4427 57.125 39.6406 57.125 39.8516ZM62.8477 42.0781C62.5534 42.0781 62.2865 42.0286 62.0469 41.9297C61.8099 41.8281 61.6055 41.6862 61.4336 41.5039C61.2643 41.3216 61.1341 41.1055 61.043 40.8555C60.9518 40.6055 60.9062 40.332 60.9062 40.0352V39.8711C60.9062 39.5273 60.957 39.2214 61.0586 38.9531C61.1602 38.6823 61.2982 38.4531 61.4727 38.2656C61.6471 38.0781 61.8451 37.9362 62.0664 37.8398C62.2878 37.7435 62.5169 37.6953 62.7539 37.6953C63.056 37.6953 63.3164 37.7474 63.5352 37.8516C63.7565 37.9557 63.9375 38.1016 64.0781 38.2891C64.2188 38.474 64.3229 38.6927 64.3906 38.9453C64.4583 39.1953 64.4922 39.4688 64.4922 39.7656V40.0898H61.3359V39.5H63.7695V39.4453C63.7591 39.2578 63.7201 39.0755 63.6523 38.8984C63.5872 38.7214 63.4831 38.5755 63.3398 38.4609C63.1966 38.3464 63.0013 38.2891 62.7539 38.2891C62.5898 38.2891 62.4388 38.3242 62.3008 38.3945C62.1628 38.4622 62.0443 38.5638 61.9453 38.6992C61.8464 38.8346 61.7695 39 61.7148 39.1953C61.6602 39.3906 61.6328 39.6159 61.6328 39.8711V40.0352C61.6328 40.2357 61.6602 40.4245 61.7148 40.6016C61.7721 40.776 61.8542 40.9297 61.9609 41.0625C62.0703 41.1953 62.2018 41.2995 62.3555 41.375C62.5117 41.4505 62.6888 41.4883 62.8867 41.4883C63.1419 41.4883 63.3581 41.4362 63.5352 41.332C63.7122 41.2279 63.8672 41.0885 64 40.9141L64.4375 41.2617C64.3464 41.3997 64.2305 41.5312 64.0898 41.6562C63.9492 41.7812 63.776 41.8828 63.5703 41.9609C63.3672 42.0391 63.1263 42.0781 62.8477 42.0781ZM68.6055 41.3477L69.7617 37.7734H70.5L68.9805 42H68.4961L68.6055 41.3477ZM67.6406 37.7734L68.832 41.3672L68.9141 42H68.4297L66.8984 37.7734H67.6406ZM70.9414 39.9336V39.8438C70.9414 39.5391 70.9857 39.2565 71.0742 38.9961C71.1628 38.7331 71.2904 38.5052 71.457 38.3125C71.6237 38.1172 71.8255 37.9661 72.0625 37.8594C72.2995 37.75 72.5651 37.6953 72.8594 37.6953C73.1562 37.6953 73.4232 37.75 73.6602 37.8594C73.8997 37.9661 74.1029 38.1172 74.2695 38.3125C74.4388 38.5052 74.5677 38.7331 74.6562 38.9961C74.7448 39.2565 74.7891 39.5391 74.7891 39.8438V39.9336C74.7891 40.2383 74.7448 40.5208 74.6562 40.7812C74.5677 41.0417 74.4388 41.2695 74.2695 41.4648C74.1029 41.6576 73.901 41.8086 73.6641 41.918C73.4297 42.0247 73.1641 42.0781 72.8672 42.0781C72.5703 42.0781 72.3034 42.0247 72.0664 41.918C71.8294 41.8086 71.6263 41.6576 71.457 41.4648C71.2904 41.2695 71.1628 41.0417 71.0742 40.7812C70.9857 40.5208 70.9414 40.2383 70.9414 39.9336ZM71.6641 39.8438V39.9336C71.6641 40.1445 71.6888 40.3438 71.7383 40.5312C71.7878 40.7161 71.862 40.8802 71.9609 41.0234C72.0625 41.1667 72.1888 41.2799 72.3398 41.3633C72.4909 41.444 72.6667 41.4844 72.8672 41.4844C73.0651 41.4844 73.2383 41.444 73.3867 41.3633C73.5378 41.2799 73.6628 41.1667 73.7617 41.0234C73.8607 40.8802 73.9349 40.7161 73.9844 40.5312C74.0365 40.3438 74.0625 40.1445 74.0625 39.9336V39.8438C74.0625 39.6354 74.0365 39.4388 73.9844 39.2539C73.9349 39.0664 73.8594 38.901 73.7578 38.7578C73.6589 38.612 73.5339 38.4974 73.3828 38.4141C73.2344 38.3307 73.0599 38.2891 72.8594 38.2891C72.6615 38.2891 72.487 38.3307 72.3359 38.4141C72.1875 38.4974 72.0625 38.612 71.9609 38.7578C71.862 38.901 71.7878 39.0664 71.7383 39.2539C71.6888 39.4388 71.6641 39.6354 71.6641 39.8438ZM76.4805 37.7734V42H75.7539V37.7734H76.4805ZM75.6992 36.6523C75.6992 36.5352 75.7344 36.4362 75.8047 36.3555C75.8776 36.2747 75.9844 36.2344 76.125 36.2344C76.263 36.2344 76.3685 36.2747 76.4414 36.3555C76.5169 36.4362 76.5547 36.5352 76.5547 36.6523C76.5547 36.7643 76.5169 36.8607 76.4414 36.9414C76.3685 37.0195 76.263 37.0586 76.125 37.0586C75.9844 37.0586 75.8776 37.0195 75.8047 36.9414C75.7344 36.8607 75.6992 36.7643 75.6992 36.6523ZM78.3633 38.4375V42H77.6406V37.7734H78.3438L78.3633 38.4375ZM79.6836 37.75L79.6797 38.4219C79.6198 38.4089 79.5625 38.401 79.5078 38.3984C79.4557 38.3932 79.3958 38.3906 79.3281 38.3906C79.1615 38.3906 79.0143 38.4167 78.8867 38.4688C78.7591 38.5208 78.651 38.5938 78.5625 38.6875C78.474 38.7812 78.4036 38.8932 78.3516 39.0234C78.3021 39.151 78.2695 39.2917 78.2539 39.4453L78.0508 39.5625C78.0508 39.3073 78.0755 39.0677 78.125 38.8438C78.1771 38.6198 78.2565 38.4219 78.3633 38.25C78.4701 38.0755 78.6055 37.9401 78.7695 37.8438C78.9362 37.7448 79.1341 37.6953 79.3633 37.6953C79.4154 37.6953 79.4753 37.7018 79.543 37.7148C79.6107 37.7253 79.6576 37.737 79.6836 37.75ZM81.1367 37.7734V42H80.4102V37.7734H81.1367ZM80.3555 36.6523C80.3555 36.5352 80.3906 36.4362 80.4609 36.3555C80.5339 36.2747 80.6406 36.2344 80.7812 36.2344C80.9193 36.2344 81.0247 36.2747 81.0977 36.3555C81.1732 36.4362 81.2109 36.5352 81.2109 36.6523C81.2109 36.7643 81.1732 36.8607 81.0977 36.9414C81.0247 37.0195 80.9193 37.0586 80.7812 37.0586C80.6406 37.0586 80.5339 37.0195 80.4609 36.9414C80.3906 36.8607 80.3555 36.7643 80.3555 36.6523ZM84.0508 42.0781C83.7565 42.0781 83.4896 42.0286 83.25 41.9297C83.013 41.8281 82.8086 41.6862 82.6367 41.5039C82.4674 41.3216 82.3372 41.1055 82.2461 40.8555C82.1549 40.6055 82.1094 40.332 82.1094 40.0352V39.8711C82.1094 39.5273 82.1602 39.2214 82.2617 38.9531C82.3633 38.6823 82.5013 38.4531 82.6758 38.2656C82.8503 38.0781 83.0482 37.9362 83.2695 37.8398C83.4909 37.7435 83.7201 37.6953 83.957 37.6953C84.2591 37.6953 84.5195 37.7474 84.7383 37.8516C84.9596 37.9557 85.1406 38.1016 85.2812 38.2891C85.4219 38.474 85.526 38.6927 85.5938 38.9453C85.6615 39.1953 85.6953 39.4688 85.6953 39.7656V40.0898H82.5391V39.5H84.9727V39.4453C84.9622 39.2578 84.9232 39.0755 84.8555 38.8984C84.7904 38.7214 84.6862 38.5755 84.543 38.4609C84.3997 38.3464 84.2044 38.2891 83.957 38.2891C83.793 38.2891 83.6419 38.3242 83.5039 38.3945C83.3659 38.4622 83.2474 38.5638 83.1484 38.6992C83.0495 38.8346 82.9727 39 82.918 39.1953C82.8633 39.3906 82.8359 39.6159 82.8359 39.8711V40.0352C82.8359 40.2357 82.8633 40.4245 82.918 40.6016C82.9753 40.776 83.0573 40.9297 83.1641 41.0625C83.2734 41.1953 83.4049 41.2995 83.5586 41.375C83.7148 41.4505 83.8919 41.4883 84.0898 41.4883C84.3451 41.4883 84.5612 41.4362 84.7383 41.332C84.9154 41.2279 85.0703 41.0885 85.2031 40.9141L85.6406 41.2617C85.5495 41.3997 85.4336 41.5312 85.293 41.6562C85.1523 41.7812 84.9792 41.8828 84.7734 41.9609C84.5703 42.0391 84.3294 42.0781 84.0508 42.0781ZM91.0156 41.2773V39.1016C91.0156 38.9349 90.9818 38.7904 90.9141 38.668C90.849 38.543 90.75 38.4466 90.6172 38.3789C90.4844 38.3112 90.3203 38.2773 90.125 38.2773C89.9427 38.2773 89.7826 38.3086 89.6445 38.3711C89.5091 38.4336 89.4023 38.5156 89.3242 38.6172C89.2487 38.7188 89.2109 38.8281 89.2109 38.9453H88.4883C88.4883 38.7943 88.5273 38.6445 88.6055 38.4961C88.6836 38.3477 88.7956 38.2135 88.9414 38.0938C89.0898 37.9714 89.2669 37.875 89.4727 37.8047C89.681 37.7318 89.9128 37.6953 90.168 37.6953C90.4753 37.6953 90.7461 37.7474 90.9805 37.8516C91.2174 37.9557 91.4023 38.1133 91.5352 38.3242C91.6706 38.5326 91.7383 38.7943 91.7383 39.1094V41.0781C91.7383 41.2188 91.75 41.3685 91.7734 41.5273C91.7995 41.6862 91.8372 41.8229 91.8867 41.9375V42H91.1328C91.0964 41.9167 91.0677 41.806 91.0469 41.668C91.026 41.5273 91.0156 41.3971 91.0156 41.2773ZM91.1406 39.4375L91.1484 39.9453H90.418C90.2122 39.9453 90.0286 39.9622 89.8672 39.9961C89.7057 40.0273 89.5703 40.0755 89.4609 40.1406C89.3516 40.2057 89.2682 40.2878 89.2109 40.3867C89.1536 40.4831 89.125 40.5964 89.125 40.7266C89.125 40.8594 89.1549 40.9805 89.2148 41.0898C89.2747 41.1992 89.3646 41.2865 89.4844 41.3516C89.6068 41.4141 89.7565 41.4453 89.9336 41.4453C90.1549 41.4453 90.3503 41.3984 90.5195 41.3047C90.6888 41.2109 90.8229 41.0964 90.9219 40.9609C91.0234 40.8255 91.0781 40.694 91.0859 40.5664L91.3945 40.9141C91.3763 41.0234 91.3268 41.1445 91.2461 41.2773C91.1654 41.4102 91.0573 41.5378 90.9219 41.6602C90.7891 41.7799 90.6302 41.8802 90.4453 41.9609C90.263 42.0391 90.0573 42.0781 89.8281 42.0781C89.5417 42.0781 89.2904 42.0221 89.0742 41.9102C88.8607 41.7982 88.694 41.6484 88.5742 41.4609C88.457 41.2708 88.3984 41.0586 88.3984 40.8242C88.3984 40.5977 88.4427 40.3984 88.5312 40.2266C88.6198 40.0521 88.7474 39.9076 88.9141 39.793C89.0807 39.6758 89.2812 39.5872 89.5156 39.5273C89.75 39.4674 90.0117 39.4375 90.3008 39.4375H91.1406ZM89.9023 36L90.6562 37.1484H90.0352L89.0273 36H89.9023ZM95.582 38.4375V42H94.8594V37.7734H95.5625L95.582 38.4375ZM96.9023 37.75L96.8984 38.4219C96.8385 38.4089 96.7812 38.401 96.7266 38.3984C96.6745 38.3932 96.6146 38.3906 96.5469 38.3906C96.3802 38.3906 96.2331 38.4167 96.1055 38.4688C95.9779 38.5208 95.8698 38.5938 95.7812 38.6875C95.6927 38.7812 95.6224 38.8932 95.5703 39.0234C95.5208 39.151 95.4883 39.2917 95.4727 39.4453L95.2695 39.5625C95.2695 39.3073 95.2943 39.0677 95.3438 38.8438C95.3958 38.6198 95.4753 38.4219 95.582 38.25C95.6888 38.0755 95.8242 37.9401 95.9883 37.8438C96.1549 37.7448 96.3529 37.6953 96.582 37.6953C96.6341 37.6953 96.694 37.7018 96.7617 37.7148C96.8294 37.7253 96.8763 37.737 96.9023 37.75ZM99.9062 41.2773V39.1016C99.9062 38.9349 99.8724 38.7904 99.8047 38.668C99.7396 38.543 99.6406 38.4466 99.5078 38.3789C99.375 38.3112 99.2109 38.2773 99.0156 38.2773C98.8333 38.2773 98.6732 38.3086 98.5352 38.3711C98.3997 38.4336 98.293 38.5156 98.2148 38.6172C98.1393 38.7188 98.1016 38.8281 98.1016 38.9453H97.3789C97.3789 38.7943 97.418 38.6445 97.4961 38.4961C97.5742 38.3477 97.6862 38.2135 97.832 38.0938C97.9805 37.9714 98.1576 37.875 98.3633 37.8047C98.5716 37.7318 98.8034 37.6953 99.0586 37.6953C99.3659 37.6953 99.6367 37.7474 99.8711 37.8516C100.108 37.9557 100.293 38.1133 100.426 38.3242C100.561 38.5326 100.629 38.7943 100.629 39.1094V41.0781C100.629 41.2188 100.641 41.3685 100.664 41.5273C100.69 41.6862 100.728 41.8229 100.777 41.9375V42H100.023C99.987 41.9167 99.9583 41.806 99.9375 41.668C99.9167 41.5273 99.9062 41.3971 99.9062 41.2773ZM100.031 39.4375L100.039 39.9453H99.3086C99.1029 39.9453 98.9193 39.9622 98.7578 39.9961C98.5964 40.0273 98.4609 40.0755 98.3516 40.1406C98.2422 40.2057 98.1589 40.2878 98.1016 40.3867C98.0443 40.4831 98.0156 40.5964 98.0156 40.7266C98.0156 40.8594 98.0456 40.9805 98.1055 41.0898C98.1654 41.1992 98.2552 41.2865 98.375 41.3516C98.4974 41.4141 98.6471 41.4453 98.8242 41.4453C99.0456 41.4453 99.2409 41.3984 99.4102 41.3047C99.5794 41.2109 99.7135 41.0964 99.8125 40.9609C99.9141 40.8255 99.9688 40.694 99.9766 40.5664L100.285 40.9141C100.267 41.0234 100.217 41.1445 100.137 41.2773C100.056 41.4102 99.9479 41.5378 99.8125 41.6602C99.6797 41.7799 99.5208 41.8802 99.3359 41.9609C99.1536 42.0391 98.9479 42.0781 98.7188 42.0781C98.4323 42.0781 98.181 42.0221 97.9648 41.9102C97.7513 41.7982 97.5846 41.6484 97.4648 41.4609C97.3477 41.2708 97.2891 41.0586 97.2891 40.8242C97.2891 40.5977 97.3333 40.3984 97.4219 40.2266C97.5104 40.0521 97.638 39.9076 97.8047 39.793C97.9714 39.6758 98.1719 39.5872 98.4062 39.5273C98.6406 39.4674 98.9023 39.4375 99.1914 39.4375H100.031ZM102.551 37.7734V42H101.824V37.7734H102.551ZM101.77 36.6523C101.77 36.5352 101.805 36.4362 101.875 36.3555C101.948 36.2747 102.055 36.2344 102.195 36.2344C102.333 36.2344 102.439 36.2747 102.512 36.3555C102.587 36.4362 102.625 36.5352 102.625 36.6523C102.625 36.7643 102.587 36.8607 102.512 36.9414C102.439 37.0195 102.333 37.0586 102.195 37.0586C102.055 37.0586 101.948 37.0195 101.875 36.9414C101.805 36.8607 101.77 36.7643 101.77 36.6523ZM106.172 40.8789C106.172 40.7747 106.148 40.6784 106.102 40.5898C106.057 40.4987 105.965 40.4167 105.824 40.3438C105.686 40.2682 105.478 40.2031 105.199 40.1484C104.965 40.099 104.753 40.0404 104.562 39.9727C104.375 39.9049 104.215 39.8229 104.082 39.7266C103.952 39.6302 103.852 39.5169 103.781 39.3867C103.711 39.2565 103.676 39.1042 103.676 38.9297C103.676 38.763 103.712 38.6055 103.785 38.457C103.861 38.3086 103.966 38.1771 104.102 38.0625C104.24 37.9479 104.405 37.8581 104.598 37.793C104.79 37.7279 105.005 37.6953 105.242 37.6953C105.581 37.6953 105.87 37.7552 106.109 37.875C106.349 37.9948 106.533 38.1549 106.66 38.3555C106.788 38.5534 106.852 38.7734 106.852 39.0156H106.129C106.129 38.8984 106.094 38.7852 106.023 38.6758C105.956 38.5638 105.855 38.4714 105.723 38.3984C105.592 38.3255 105.432 38.2891 105.242 38.2891C105.042 38.2891 104.879 38.3203 104.754 38.3828C104.632 38.4427 104.542 38.5195 104.484 38.6133C104.43 38.707 104.402 38.806 104.402 38.9102C104.402 38.9883 104.415 39.0586 104.441 39.1211C104.47 39.181 104.52 39.237 104.59 39.2891C104.66 39.3385 104.759 39.3854 104.887 39.4297C105.014 39.474 105.177 39.5182 105.375 39.5625C105.721 39.6406 106.007 39.7344 106.23 39.8438C106.454 39.9531 106.621 40.0872 106.73 40.2461C106.84 40.4049 106.895 40.5977 106.895 40.8242C106.895 41.0091 106.855 41.1784 106.777 41.332C106.702 41.4857 106.591 41.6185 106.445 41.7305C106.302 41.8398 106.13 41.9258 105.93 41.9883C105.732 42.0482 105.509 42.0781 105.262 42.0781C104.889 42.0781 104.574 42.0117 104.316 41.8789C104.059 41.7461 103.863 41.5742 103.73 41.3633C103.598 41.1523 103.531 40.9297 103.531 40.6953H104.258C104.268 40.8932 104.326 41.0508 104.43 41.168C104.534 41.2826 104.661 41.3646 104.812 41.4141C104.964 41.4609 105.113 41.4844 105.262 41.4844C105.46 41.4844 105.625 41.4583 105.758 41.4062C105.893 41.3542 105.996 41.2826 106.066 41.1914C106.137 41.1003 106.172 40.9961 106.172 40.8789ZM107.652 39.9336V39.8438C107.652 39.5391 107.697 39.2565 107.785 38.9961C107.874 38.7331 108.001 38.5052 108.168 38.3125C108.335 38.1172 108.536 37.9661 108.773 37.8594C109.01 37.75 109.276 37.6953 109.57 37.6953C109.867 37.6953 110.134 37.75 110.371 37.8594C110.611 37.9661 110.814 38.1172 110.98 38.3125C111.15 38.5052 111.279 38.7331 111.367 38.9961C111.456 39.2565 111.5 39.5391 111.5 39.8438V39.9336C111.5 40.2383 111.456 40.5208 111.367 40.7812C111.279 41.0417 111.15 41.2695 110.98 41.4648C110.814 41.6576 110.612 41.8086 110.375 41.918C110.141 42.0247 109.875 42.0781 109.578 42.0781C109.281 42.0781 109.014 42.0247 108.777 41.918C108.54 41.8086 108.337 41.6576 108.168 41.4648C108.001 41.2695 107.874 41.0417 107.785 40.7812C107.697 40.5208 107.652 40.2383 107.652 39.9336ZM108.375 39.8438V39.9336C108.375 40.1445 108.4 40.3438 108.449 40.5312C108.499 40.7161 108.573 40.8802 108.672 41.0234C108.773 41.1667 108.9 41.2799 109.051 41.3633C109.202 41.444 109.378 41.4844 109.578 41.4844C109.776 41.4844 109.949 41.444 110.098 41.3633C110.249 41.2799 110.374 41.1667 110.473 41.0234C110.572 40.8802 110.646 40.7161 110.695 40.5312C110.747 40.3438 110.773 40.1445 110.773 39.9336V39.8438C110.773 39.6354 110.747 39.4388 110.695 39.2539C110.646 39.0664 110.57 38.901 110.469 38.7578C110.37 38.612 110.245 38.4974 110.094 38.4141C109.945 38.3307 109.771 38.2891 109.57 38.2891C109.372 38.2891 109.198 38.3307 109.047 38.4141C108.898 38.4974 108.773 38.612 108.672 38.7578C108.573 38.901 108.499 39.0664 108.449 39.2539C108.4 39.4388 108.375 39.6354 108.375 39.8438ZM113.129 38.6758V42H112.406V37.7734H113.09L113.129 38.6758ZM112.957 39.7266L112.656 39.7148C112.659 39.4258 112.702 39.1589 112.785 38.9141C112.868 38.6667 112.986 38.4518 113.137 38.2695C113.288 38.0872 113.467 37.9466 113.676 37.8477C113.887 37.7461 114.12 37.6953 114.375 37.6953C114.583 37.6953 114.771 37.724 114.938 37.7812C115.104 37.8359 115.246 37.9245 115.363 38.0469C115.483 38.1693 115.574 38.3281 115.637 38.5234C115.699 38.7161 115.73 38.9518 115.73 39.2305V42H115.004V39.2227C115.004 39.0013 114.971 38.8242 114.906 38.6914C114.841 38.556 114.746 38.4583 114.621 38.3984C114.496 38.3359 114.342 38.3047 114.16 38.3047C113.98 38.3047 113.816 38.3424 113.668 38.418C113.522 38.4935 113.396 38.5977 113.289 38.7305C113.185 38.8633 113.103 39.0156 113.043 39.1875C112.986 39.3568 112.957 39.5365 112.957 39.7266ZM17.2344 50.1797V45H17.9609V51H17.2969L17.2344 50.1797ZM14.3906 48.9336V48.8516C14.3906 48.5286 14.4297 48.2357 14.5078 47.9727C14.5885 47.707 14.7018 47.4792 14.8477 47.2891C14.9961 47.099 15.1719 46.9531 15.375 46.8516C15.5807 46.7474 15.8099 46.6953 16.0625 46.6953C16.3281 46.6953 16.5599 46.7422 16.7578 46.8359C16.9583 46.9271 17.1276 47.0612 17.2656 47.2383C17.4062 47.4128 17.5169 47.6237 17.5977 47.8711C17.6784 48.1185 17.7344 48.3984 17.7656 48.7109V49.0703C17.737 49.3802 17.681 49.6589 17.5977 49.9062C17.5169 50.1536 17.4062 50.3646 17.2656 50.5391C17.1276 50.7135 16.9583 50.8477 16.7578 50.9414C16.5573 51.0326 16.3229 51.0781 16.0547 51.0781C15.8073 51.0781 15.5807 51.0247 15.375 50.918C15.1719 50.8112 14.9961 50.6615 14.8477 50.4688C14.7018 50.276 14.5885 50.0495 14.5078 49.7891C14.4297 49.526 14.3906 49.2409 14.3906 48.9336ZM15.1172 48.8516V48.9336C15.1172 49.1445 15.138 49.3424 15.1797 49.5273C15.224 49.7122 15.2917 49.875 15.3828 50.0156C15.474 50.1562 15.5898 50.2669 15.7305 50.3477C15.8711 50.4258 16.0391 50.4648 16.2344 50.4648C16.474 50.4648 16.6706 50.4141 16.8242 50.3125C16.9805 50.2109 17.1055 50.0768 17.1992 49.9102C17.293 49.7435 17.3659 49.5625 17.418 49.3672V48.4258C17.3867 48.2826 17.3411 48.1445 17.2812 48.0117C17.224 47.8763 17.1484 47.7565 17.0547 47.6523C16.9635 47.5456 16.8503 47.4609 16.7148 47.3984C16.582 47.3359 16.4245 47.3047 16.2422 47.3047C16.0443 47.3047 15.8737 47.3464 15.7305 47.4297C15.5898 47.5104 15.474 47.6224 15.3828 47.7656C15.2917 47.9062 15.224 48.0703 15.1797 48.2578C15.138 48.4427 15.1172 48.6406 15.1172 48.8516ZM20.8398 51.0781C20.5456 51.0781 20.2786 51.0286 20.0391 50.9297C19.8021 50.8281 19.5977 50.6862 19.4258 50.5039C19.2565 50.3216 19.1263 50.1055 19.0352 49.8555C18.944 49.6055 18.8984 49.332 18.8984 49.0352V48.8711C18.8984 48.5273 18.9492 48.2214 19.0508 47.9531C19.1523 47.6823 19.2904 47.4531 19.4648 47.2656C19.6393 47.0781 19.8372 46.9362 20.0586 46.8398C20.2799 46.7435 20.5091 46.6953 20.7461 46.6953C21.0482 46.6953 21.3086 46.7474 21.5273 46.8516C21.7487 46.9557 21.9297 47.1016 22.0703 47.2891C22.2109 47.474 22.3151 47.6927 22.3828 47.9453C22.4505 48.1953 22.4844 48.4688 22.4844 48.7656V49.0898H19.3281V48.5H21.7617V48.4453C21.7513 48.2578 21.7122 48.0755 21.6445 47.8984C21.5794 47.7214 21.4753 47.5755 21.332 47.4609C21.1888 47.3464 20.9935 47.2891 20.7461 47.2891C20.582 47.2891 20.431 47.3242 20.293 47.3945C20.1549 47.4622 20.0365 47.5638 19.9375 47.6992C19.8385 47.8346 19.7617 48 19.707 48.1953C19.6523 48.3906 19.625 48.6159 19.625 48.8711V49.0352C19.625 49.2357 19.6523 49.4245 19.707 49.6016C19.7643 49.776 19.8464 49.9297 19.9531 50.0625C20.0625 50.1953 20.194 50.2995 20.3477 50.375C20.5039 50.4505 20.681 50.4883 20.8789 50.4883C21.1341 50.4883 21.3503 50.4362 21.5273 50.332C21.7044 50.2279 21.8594 50.0885 21.9922 49.9141L22.4297 50.2617C22.3385 50.3997 22.2227 50.5312 22.082 50.6562C21.9414 50.7812 21.7682 50.8828 21.5625 50.9609C21.3594 51.0391 21.1185 51.0781 20.8398 51.0781ZM28.9609 50.4062V51H25.2383V50.4805L27.1016 48.4062C27.3307 48.151 27.5078 47.9349 27.6328 47.7578C27.7604 47.5781 27.849 47.418 27.8984 47.2773C27.9505 47.1341 27.9766 46.9883 27.9766 46.8398C27.9766 46.6523 27.9375 46.4831 27.8594 46.332C27.7839 46.1784 27.6719 46.056 27.5234 45.9648C27.375 45.8737 27.1953 45.8281 26.9844 45.8281C26.7318 45.8281 26.5208 45.8776 26.3516 45.9766C26.1849 46.0729 26.0599 46.2083 25.9766 46.3828C25.8932 46.5573 25.8516 46.7578 25.8516 46.9844H25.1289C25.1289 46.6641 25.1992 46.3711 25.3398 46.1055C25.4805 45.8398 25.6888 45.6289 25.9648 45.4727C26.2409 45.3138 26.5807 45.2344 26.9844 45.2344C27.3438 45.2344 27.651 45.2982 27.9062 45.4258C28.1615 45.5508 28.3568 45.7279 28.4922 45.957C28.6302 46.1836 28.6992 46.4492 28.6992 46.7539C28.6992 46.9206 28.6706 47.0898 28.6133 47.2617C28.5586 47.431 28.4818 47.6003 28.3828 47.7695C28.2865 47.9388 28.1732 48.1055 28.043 48.2695C27.9154 48.4336 27.7786 48.5951 27.6328 48.7539L26.1094 50.4062H28.9609ZM30.6484 48.293L30.0703 48.1445L30.3555 45.3125H33.2734V45.9805H30.9688L30.7969 47.5273C30.901 47.4674 31.0326 47.4115 31.1914 47.3594C31.3529 47.3073 31.5378 47.2812 31.7461 47.2812C32.0091 47.2812 32.2448 47.3268 32.4531 47.418C32.6615 47.5065 32.8385 47.6341 32.9844 47.8008C33.1328 47.9674 33.2461 48.168 33.3242 48.4023C33.4023 48.6367 33.4414 48.8984 33.4414 49.1875C33.4414 49.4609 33.4036 49.7122 33.3281 49.9414C33.2552 50.1706 33.1445 50.3711 32.9961 50.543C32.8477 50.7122 32.6602 50.8438 32.4336 50.9375C32.2096 51.0312 31.9453 51.0781 31.6406 51.0781C31.4115 51.0781 31.194 51.0469 30.9883 50.9844C30.7852 50.9193 30.6029 50.8216 30.4414 50.6914C30.2826 50.5586 30.1523 50.3945 30.0508 50.1992C29.9518 50.0013 29.8893 49.7695 29.8633 49.5039H30.5508C30.582 49.7174 30.6445 49.8971 30.7383 50.043C30.832 50.1888 30.9544 50.2995 31.1055 50.375C31.2591 50.4479 31.4375 50.4844 31.6406 50.4844C31.8125 50.4844 31.9648 50.4544 32.0977 50.3945C32.2305 50.3346 32.3424 50.2487 32.4336 50.1367C32.5247 50.0247 32.5938 49.8893 32.6406 49.7305C32.6901 49.5716 32.7148 49.3932 32.7148 49.1953C32.7148 49.0156 32.6901 48.849 32.6406 48.6953C32.5911 48.5417 32.5169 48.4076 32.418 48.293C32.3216 48.1784 32.2031 48.0898 32.0625 48.0273C31.9219 47.9622 31.7604 47.9297 31.5781 47.9297C31.3359 47.9297 31.1523 47.9622 31.0273 48.0273C30.9049 48.0924 30.7786 48.181 30.6484 48.293ZM36.6445 45.3125H37.375L39.2383 49.9492L41.0977 45.3125H41.832L39.5195 51H38.9492L36.6445 45.3125ZM36.4062 45.3125H37.0508L37.1562 48.7812V51H36.4062V45.3125ZM41.4219 45.3125H42.0664V51H41.3164V48.7812L41.4219 45.3125ZM45.9883 47.5859V52.625H45.2617V46.7734H45.9258L45.9883 47.5859ZM48.8359 48.8516V48.9336C48.8359 49.2409 48.7995 49.526 48.7266 49.7891C48.6536 50.0495 48.5469 50.276 48.4062 50.4688C48.2682 50.6615 48.0977 50.8112 47.8945 50.918C47.6914 51.0247 47.4583 51.0781 47.1953 51.0781C46.9271 51.0781 46.6901 51.0339 46.4844 50.9453C46.2786 50.8568 46.1042 50.7279 45.9609 50.5586C45.8177 50.3893 45.7031 50.1862 45.6172 49.9492C45.5339 49.7122 45.4766 49.4453 45.4453 49.1484V48.7109C45.4766 48.3984 45.5352 48.1185 45.6211 47.8711C45.707 47.6237 45.8203 47.4128 45.9609 47.2383C46.1042 47.0612 46.2773 46.9271 46.4805 46.8359C46.6836 46.7422 46.918 46.6953 47.1836 46.6953C47.4492 46.6953 47.6849 46.7474 47.8906 46.8516C48.0964 46.9531 48.2695 47.099 48.4102 47.2891C48.5508 47.4792 48.6562 47.707 48.7266 47.9727C48.7995 48.2357 48.8359 48.5286 48.8359 48.8516ZM48.1094 48.9336V48.8516C48.1094 48.6406 48.0872 48.4427 48.043 48.2578C47.9987 48.0703 47.9297 47.9062 47.8359 47.7656C47.7448 47.6224 47.6276 47.5104 47.4844 47.4297C47.3411 47.3464 47.1706 47.3047 46.9727 47.3047C46.7904 47.3047 46.6315 47.3359 46.4961 47.3984C46.3633 47.4609 46.25 47.5456 46.1562 47.6523C46.0625 47.7565 45.9857 47.8763 45.9258 48.0117C45.8685 48.1445 45.8255 48.2826 45.7969 48.4258V49.4375C45.849 49.6198 45.9219 49.7917 46.0156 49.9531C46.1094 50.112 46.2344 50.2409 46.3906 50.3398C46.5469 50.4362 46.7435 50.4844 46.9805 50.4844C47.1758 50.4844 47.3438 50.444 47.4844 50.3633C47.6276 50.2799 47.7448 50.1667 47.8359 50.0234C47.9297 49.8802 47.9987 49.7161 48.043 49.5312C48.0872 49.3438 48.1094 49.1445 48.1094 48.9336ZM52.25 50.2773V48.1016C52.25 47.9349 52.2161 47.7904 52.1484 47.668C52.0833 47.543 51.9844 47.4466 51.8516 47.3789C51.7188 47.3112 51.5547 47.2773 51.3594 47.2773C51.1771 47.2773 51.0169 47.3086 50.8789 47.3711C50.7435 47.4336 50.6367 47.5156 50.5586 47.6172C50.4831 47.7188 50.4453 47.8281 50.4453 47.9453H49.7227C49.7227 47.7943 49.7617 47.6445 49.8398 47.4961C49.918 47.3477 50.0299 47.2135 50.1758 47.0938C50.3242 46.9714 50.5013 46.875 50.707 46.8047C50.9154 46.7318 51.1471 46.6953 51.4023 46.6953C51.7096 46.6953 51.9805 46.7474 52.2148 46.8516C52.4518 46.9557 52.6367 47.1133 52.7695 47.3242C52.9049 47.5326 52.9727 47.7943 52.9727 48.1094V50.0781C52.9727 50.2188 52.9844 50.3685 53.0078 50.5273C53.0339 50.6862 53.0716 50.8229 53.1211 50.9375V51H52.3672C52.3307 50.9167 52.3021 50.806 52.2812 50.668C52.2604 50.5273 52.25 50.3971 52.25 50.2773ZM52.375 48.4375L52.3828 48.9453H51.6523C51.4466 48.9453 51.263 48.9622 51.1016 48.9961C50.9401 49.0273 50.8047 49.0755 50.6953 49.1406C50.5859 49.2057 50.5026 49.2878 50.4453 49.3867C50.388 49.4831 50.3594 49.5964 50.3594 49.7266C50.3594 49.8594 50.3893 49.9805 50.4492 50.0898C50.5091 50.1992 50.599 50.2865 50.7188 50.3516C50.8411 50.4141 50.9909 50.4453 51.168 50.4453C51.3893 50.4453 51.5846 50.3984 51.7539 50.3047C51.9232 50.2109 52.0573 50.0964 52.1562 49.9609C52.2578 49.8255 52.3125 49.694 52.3203 49.5664L52.6289 49.9141C52.6107 50.0234 52.5612 50.1445 52.4805 50.2773C52.3997 50.4102 52.2917 50.5378 52.1562 50.6602C52.0234 50.7799 51.8646 50.8802 51.6797 50.9609C51.4974 51.0391 51.2917 51.0781 51.0625 51.0781C50.776 51.0781 50.5247 51.0221 50.3086 50.9102C50.0951 50.7982 49.9284 50.6484 49.8086 50.4609C49.6914 50.2708 49.6328 50.0586 49.6328 49.8242C49.6328 49.5977 49.6771 49.3984 49.7656 49.2266C49.8542 49.0521 49.9818 48.9076 50.1484 48.793C50.3151 48.6758 50.5156 48.5872 50.75 48.5273C50.9844 48.4674 51.2461 48.4375 51.5352 48.4375H52.375ZM54.832 47.4375V51H54.1094V46.7734H54.8125L54.832 47.4375ZM56.1523 46.75L56.1484 47.4219C56.0885 47.4089 56.0312 47.401 55.9766 47.3984C55.9245 47.3932 55.8646 47.3906 55.7969 47.3906C55.6302 47.3906 55.4831 47.4167 55.3555 47.4688C55.2279 47.5208 55.1198 47.5938 55.0312 47.6875C54.9427 47.7812 54.8724 47.8932 54.8203 48.0234C54.7708 48.151 54.7383 48.2917 54.7227 48.4453L54.5195 48.5625C54.5195 48.3073 54.5443 48.0677 54.5938 47.8438C54.6458 47.6198 54.7253 47.4219 54.832 47.25C54.9388 47.0755 55.0742 46.9401 55.2383 46.8438C55.4049 46.7448 55.6029 46.6953 55.832 46.6953C55.8841 46.6953 55.944 46.7018 56.0117 46.7148C56.0794 46.7253 56.1263 46.737 56.1523 46.75ZM59.5234 47.6133V51H58.7969V46.7734H59.4844L59.5234 47.6133ZM59.375 48.7266L59.0391 48.7148C59.0417 48.4258 59.0794 48.1589 59.1523 47.9141C59.2253 47.6667 59.3333 47.4518 59.4766 47.2695C59.6198 47.0872 59.7982 46.9466 60.0117 46.8477C60.2253 46.7461 60.4727 46.6953 60.7539 46.6953C60.9518 46.6953 61.1341 46.724 61.3008 46.7812C61.4674 46.8359 61.612 46.9232 61.7344 47.043C61.8568 47.1628 61.9518 47.3164 62.0195 47.5039C62.0872 47.6914 62.1211 47.918 62.1211 48.1836V51H61.3984V48.2188C61.3984 47.9974 61.3607 47.8203 61.2852 47.6875C61.2122 47.5547 61.1081 47.4583 60.9727 47.3984C60.8372 47.3359 60.6784 47.3047 60.4961 47.3047C60.2826 47.3047 60.1042 47.3424 59.9609 47.418C59.8177 47.4935 59.7031 47.5977 59.6172 47.7305C59.5312 47.8633 59.4688 48.0156 59.4297 48.1875C59.3932 48.3568 59.375 48.5365 59.375 48.7266ZM62.1133 48.3281L61.6289 48.4766C61.6315 48.2448 61.6693 48.0221 61.7422 47.8086C61.8177 47.5951 61.9258 47.4049 62.0664 47.2383C62.2096 47.0716 62.3854 46.9401 62.5938 46.8438C62.8021 46.7448 63.0404 46.6953 63.3086 46.6953C63.5352 46.6953 63.7357 46.7253 63.9102 46.7852C64.0872 46.8451 64.2357 46.9375 64.3555 47.0625C64.4779 47.1849 64.5703 47.3424 64.6328 47.5352C64.6953 47.7279 64.7266 47.957 64.7266 48.2227V51H64V48.2148C64 47.9779 63.9622 47.7943 63.8867 47.6641C63.8138 47.5312 63.7096 47.4388 63.5742 47.3867C63.4414 47.332 63.2826 47.3047 63.0977 47.3047C62.9388 47.3047 62.7982 47.332 62.6758 47.3867C62.5534 47.4414 62.4505 47.5169 62.3672 47.6133C62.2839 47.707 62.2201 47.8151 62.1758 47.9375C62.1341 48.0599 62.1133 48.1901 62.1133 48.3281ZM68.3125 50.2773V48.1016C68.3125 47.9349 68.2786 47.7904 68.2109 47.668C68.1458 47.543 68.0469 47.4466 67.9141 47.3789C67.7812 47.3112 67.6172 47.2773 67.4219 47.2773C67.2396 47.2773 67.0794 47.3086 66.9414 47.3711C66.806 47.4336 66.6992 47.5156 66.6211 47.6172C66.5456 47.7188 66.5078 47.8281 66.5078 47.9453H65.7852C65.7852 47.7943 65.8242 47.6445 65.9023 47.4961C65.9805 47.3477 66.0924 47.2135 66.2383 47.0938C66.3867 46.9714 66.5638 46.875 66.7695 46.8047C66.9779 46.7318 67.2096 46.6953 67.4648 46.6953C67.7721 46.6953 68.043 46.7474 68.2773 46.8516C68.5143 46.9557 68.6992 47.1133 68.832 47.3242C68.9674 47.5326 69.0352 47.7943 69.0352 48.1094V50.0781C69.0352 50.2188 69.0469 50.3685 69.0703 50.5273C69.0964 50.6862 69.1341 50.8229 69.1836 50.9375V51H68.4297C68.3932 50.9167 68.3646 50.806 68.3438 50.668C68.3229 50.5273 68.3125 50.3971 68.3125 50.2773ZM68.4375 48.4375L68.4453 48.9453H67.7148C67.5091 48.9453 67.3255 48.9622 67.1641 48.9961C67.0026 49.0273 66.8672 49.0755 66.7578 49.1406C66.6484 49.2057 66.5651 49.2878 66.5078 49.3867C66.4505 49.4831 66.4219 49.5964 66.4219 49.7266C66.4219 49.8594 66.4518 49.9805 66.5117 50.0898C66.5716 50.1992 66.6615 50.2865 66.7812 50.3516C66.9036 50.4141 67.0534 50.4453 67.2305 50.4453C67.4518 50.4453 67.6471 50.3984 67.8164 50.3047C67.9857 50.2109 68.1198 50.0964 68.2188 49.9609C68.3203 49.8255 68.375 49.694 68.3828 49.5664L68.6914 49.9141C68.6732 50.0234 68.6237 50.1445 68.543 50.2773C68.4622 50.4102 68.3542 50.5378 68.2188 50.6602C68.0859 50.7799 67.9271 50.8802 67.7422 50.9609C67.5599 51.0391 67.3542 51.0781 67.125 51.0781C66.8385 51.0781 66.5872 51.0221 66.3711 50.9102C66.1576 50.7982 65.9909 50.6484 65.8711 50.4609C65.7539 50.2708 65.6953 50.0586 65.6953 49.8242C65.6953 49.5977 65.7396 49.3984 65.8281 49.2266C65.9167 49.0521 66.0443 48.9076 66.2109 48.793C66.3776 48.6758 66.5781 48.5872 66.8125 48.5273C67.0469 48.4674 67.3086 48.4375 67.5977 48.4375H68.4375ZM70.957 46.7734V51H70.2305V46.7734H70.957ZM70.1758 45.6523C70.1758 45.5352 70.2109 45.4362 70.2812 45.3555C70.3542 45.2747 70.4609 45.2344 70.6016 45.2344C70.7396 45.2344 70.8451 45.2747 70.918 45.3555C70.9935 45.4362 71.0312 45.5352 71.0312 45.6523C71.0312 45.7643 70.9935 45.8607 70.918 45.9414C70.8451 46.0195 70.7396 46.0586 70.6016 46.0586C70.4609 46.0586 70.3542 46.0195 70.2812 45.9414C70.2109 45.8607 70.1758 45.7643 70.1758 45.6523ZM74.5781 49.8789C74.5781 49.7747 74.5547 49.6784 74.5078 49.5898C74.4635 49.4987 74.3711 49.4167 74.2305 49.3438C74.0924 49.2682 73.8841 49.2031 73.6055 49.1484C73.3711 49.099 73.1589 49.0404 72.9688 48.9727C72.7812 48.9049 72.6211 48.8229 72.4883 48.7266C72.3581 48.6302 72.2578 48.5169 72.1875 48.3867C72.1172 48.2565 72.082 48.1042 72.082 47.9297C72.082 47.763 72.1185 47.6055 72.1914 47.457C72.2669 47.3086 72.3724 47.1771 72.5078 47.0625C72.6458 46.9479 72.8112 46.8581 73.0039 46.793C73.1966 46.7279 73.4115 46.6953 73.6484 46.6953C73.987 46.6953 74.276 46.7552 74.5156 46.875C74.7552 46.9948 74.9388 47.1549 75.0664 47.3555C75.194 47.5534 75.2578 47.7734 75.2578 48.0156H74.5352C74.5352 47.8984 74.5 47.7852 74.4297 47.6758C74.362 47.5638 74.2617 47.4714 74.1289 47.3984C73.9987 47.3255 73.8385 47.2891 73.6484 47.2891C73.4479 47.2891 73.2852 47.3203 73.1602 47.3828C73.0378 47.4427 72.9479 47.5195 72.8906 47.6133C72.8359 47.707 72.8086 47.806 72.8086 47.9102C72.8086 47.9883 72.8216 48.0586 72.8477 48.1211C72.8763 48.181 72.9258 48.237 72.9961 48.2891C73.0664 48.3385 73.1654 48.3854 73.293 48.4297C73.4206 48.474 73.5833 48.5182 73.7812 48.5625C74.1276 48.6406 74.4128 48.7344 74.6367 48.8438C74.8607 48.9531 75.0273 49.0872 75.1367 49.2461C75.2461 49.4049 75.3008 49.5977 75.3008 49.8242C75.3008 50.0091 75.2617 50.1784 75.1836 50.332C75.1081 50.4857 74.9974 50.6185 74.8516 50.7305C74.7083 50.8398 74.5365 50.9258 74.3359 50.9883C74.138 51.0482 73.9154 51.0781 73.668 51.0781C73.2956 51.0781 72.9805 51.0117 72.7227 50.8789C72.4648 50.7461 72.2695 50.5742 72.1367 50.3633C72.0039 50.1523 71.9375 49.9297 71.9375 49.6953H72.6641C72.6745 49.8932 72.7318 50.0508 72.8359 50.168C72.9401 50.2826 73.0677 50.3646 73.2188 50.4141C73.3698 50.4609 73.5195 50.4844 73.668 50.4844C73.8659 50.4844 74.0312 50.4583 74.1641 50.4062C74.2995 50.3542 74.4023 50.2826 74.4727 50.1914C74.543 50.1003 74.5781 49.9961 74.5781 49.8789ZM76.0586 48.9336V48.8438C76.0586 48.5391 76.1029 48.2565 76.1914 47.9961C76.2799 47.7331 76.4076 47.5052 76.5742 47.3125C76.7409 47.1172 76.9427 46.9661 77.1797 46.8594C77.4167 46.75 77.6823 46.6953 77.9766 46.6953C78.2734 46.6953 78.5404 46.75 78.7773 46.8594C79.0169 46.9661 79.2201 47.1172 79.3867 47.3125C79.556 47.5052 79.6849 47.7331 79.7734 47.9961C79.862 48.2565 79.9062 48.5391 79.9062 48.8438V48.9336C79.9062 49.2383 79.862 49.5208 79.7734 49.7812C79.6849 50.0417 79.556 50.2695 79.3867 50.4648C79.2201 50.6576 79.0182 50.8086 78.7812 50.918C78.5469 51.0247 78.2812 51.0781 77.9844 51.0781C77.6875 51.0781 77.4206 51.0247 77.1836 50.918C76.9466 50.8086 76.7435 50.6576 76.5742 50.4648C76.4076 50.2695 76.2799 50.0417 76.1914 49.7812C76.1029 49.5208 76.0586 49.2383 76.0586 48.9336ZM76.7812 48.8438V48.9336C76.7812 49.1445 76.806 49.3438 76.8555 49.5312C76.9049 49.7161 76.9792 49.8802 77.0781 50.0234C77.1797 50.1667 77.306 50.2799 77.457 50.3633C77.6081 50.444 77.7839 50.4844 77.9844 50.4844C78.1823 50.4844 78.3555 50.444 78.5039 50.3633C78.6549 50.2799 78.7799 50.1667 78.8789 50.0234C78.9779 49.8802 79.0521 49.7161 79.1016 49.5312C79.1536 49.3438 79.1797 49.1445 79.1797 48.9336V48.8438C79.1797 48.6354 79.1536 48.4388 79.1016 48.2539C79.0521 48.0664 78.9766 47.901 78.875 47.7578C78.776 47.612 78.651 47.4974 78.5 47.4141C78.3516 47.3307 78.1771 47.2891 77.9766 47.2891C77.7786 47.2891 77.6042 47.3307 77.4531 47.4141C77.3047 47.4974 77.1797 47.612 77.0781 47.7578C76.9792 47.901 76.9049 48.0664 76.8555 48.2539C76.806 48.4388 76.7812 48.6354 76.7812 48.8438ZM81.5352 47.6758V51H80.8125V46.7734H81.4961L81.5352 47.6758ZM81.3633 48.7266L81.0625 48.7148C81.0651 48.4258 81.1081 48.1589 81.1914 47.9141C81.2747 47.6667 81.3919 47.4518 81.543 47.2695C81.694 47.0872 81.8737 46.9466 82.082 46.8477C82.293 46.7461 82.526 46.6953 82.7812 46.6953C82.9896 46.6953 83.1771 46.724 83.3438 46.7812C83.5104 46.8359 83.6523 46.9245 83.7695 47.0469C83.8893 47.1693 83.9805 47.3281 84.043 47.5234C84.1055 47.7161 84.1367 47.9518 84.1367 48.2305V51H83.4102V48.2227C83.4102 48.0013 83.3776 47.8242 83.3125 47.6914C83.2474 47.556 83.1523 47.4583 83.0273 47.3984C82.9023 47.3359 82.7487 47.3047 82.5664 47.3047C82.3867 47.3047 82.2227 47.3424 82.0742 47.418C81.9284 47.4935 81.8021 47.5977 81.6953 47.7305C81.5911 47.8633 81.5091 48.0156 81.4492 48.1875C81.3919 48.3568 81.3633 48.5365 81.3633 48.7266ZM88.9727 51.0781C88.6784 51.0781 88.4115 51.0286 88.1719 50.9297C87.9349 50.8281 87.7305 50.6862 87.5586 50.5039C87.3893 50.3216 87.2591 50.1055 87.168 49.8555C87.0768 49.6055 87.0312 49.332 87.0312 49.0352V48.8711C87.0312 48.5273 87.082 48.2214 87.1836 47.9531C87.2852 47.6823 87.4232 47.4531 87.5977 47.2656C87.7721 47.0781 87.9701 46.9362 88.1914 46.8398C88.4128 46.7435 88.6419 46.6953 88.8789 46.6953C89.181 46.6953 89.4414 46.7474 89.6602 46.8516C89.8815 46.9557 90.0625 47.1016 90.2031 47.2891C90.3438 47.474 90.4479 47.6927 90.5156 47.9453C90.5833 48.1953 90.6172 48.4688 90.6172 48.7656V49.0898H87.4609V48.5H89.8945V48.4453C89.8841 48.2578 89.8451 48.0755 89.7773 47.8984C89.7122 47.7214 89.6081 47.5755 89.4648 47.4609C89.3216 47.3464 89.1263 47.2891 88.8789 47.2891C88.7148 47.2891 88.5638 47.3242 88.4258 47.3945C88.2878 47.4622 88.1693 47.5638 88.0703 47.6992C87.9714 47.8346 87.8945 48 87.8398 48.1953C87.7852 48.3906 87.7578 48.6159 87.7578 48.8711V49.0352C87.7578 49.2357 87.7852 49.4245 87.8398 49.6016C87.8971 49.776 87.9792 49.9297 88.0859 50.0625C88.1953 50.1953 88.3268 50.2995 88.4805 50.375C88.6367 50.4505 88.8138 50.4883 89.0117 50.4883C89.2669 50.4883 89.4831 50.4362 89.6602 50.332C89.8372 50.2279 89.9922 50.0885 90.125 49.9141L90.5625 50.2617C90.4714 50.3997 90.3555 50.5312 90.2148 50.6562C90.0742 50.7812 89.901 50.8828 89.6953 50.9609C89.4922 51.0391 89.2513 51.0781 88.9727 51.0781ZM93.2305 46.7734V47.3281H90.9453V46.7734H93.2305ZM91.7188 45.7461H92.4414V49.9531C92.4414 50.0964 92.4635 50.2044 92.5078 50.2773C92.5521 50.3503 92.6094 50.3984 92.6797 50.4219C92.75 50.4453 92.8255 50.457 92.9062 50.457C92.9661 50.457 93.0286 50.4518 93.0938 50.4414C93.1615 50.4284 93.2122 50.418 93.2461 50.4102L93.25 51C93.1927 51.0182 93.1172 51.0352 93.0234 51.0508C92.9323 51.069 92.8216 51.0781 92.6914 51.0781C92.5143 51.0781 92.3516 51.043 92.2031 50.9727C92.0547 50.9023 91.9362 50.7852 91.8477 50.6211C91.7617 50.4544 91.7188 50.2305 91.7188 49.9492V45.7461ZM98.3594 45.2812V51H97.6367V46.1836L96.1797 46.7148V46.0625L98.2461 45.2812H98.3594ZM104.055 47.7031V48.5703C104.055 49.0365 104.013 49.4297 103.93 49.75C103.846 50.0703 103.727 50.3281 103.57 50.5234C103.414 50.7188 103.225 50.8607 103.004 50.9492C102.785 51.0352 102.538 51.0781 102.262 51.0781C102.043 51.0781 101.841 51.0508 101.656 50.9961C101.471 50.9414 101.305 50.8542 101.156 50.7344C101.01 50.612 100.885 50.4531 100.781 50.2578C100.677 50.0625 100.598 49.8255 100.543 49.5469C100.488 49.2682 100.461 48.9427 100.461 48.5703V47.7031C100.461 47.237 100.503 46.8464 100.586 46.5312C100.672 46.2161 100.793 45.9635 100.949 45.7734C101.105 45.5807 101.293 45.4427 101.512 45.3594C101.733 45.276 101.98 45.2344 102.254 45.2344C102.475 45.2344 102.678 45.2617 102.863 45.3164C103.051 45.3685 103.217 45.4531 103.363 45.5703C103.509 45.6849 103.633 45.8385 103.734 46.0312C103.839 46.2214 103.918 46.4544 103.973 46.7305C104.027 47.0065 104.055 47.3307 104.055 47.7031ZM103.328 48.6875V47.582C103.328 47.3268 103.312 47.1029 103.281 46.9102C103.253 46.7148 103.21 46.5482 103.152 46.4102C103.095 46.2721 103.022 46.1602 102.934 46.0742C102.848 45.9883 102.747 45.9258 102.633 45.8867C102.521 45.8451 102.395 45.8242 102.254 45.8242C102.082 45.8242 101.93 45.8568 101.797 45.9219C101.664 45.9844 101.552 46.0846 101.461 46.2227C101.372 46.3607 101.305 46.5417 101.258 46.7656C101.211 46.9896 101.188 47.2617 101.188 47.582V48.6875C101.188 48.9427 101.202 49.168 101.23 49.3633C101.262 49.5586 101.307 49.7279 101.367 49.8711C101.427 50.0117 101.5 50.1276 101.586 50.2188C101.672 50.3099 101.771 50.3776 101.883 50.4219C101.997 50.4635 102.124 50.4844 102.262 50.4844C102.439 50.4844 102.594 50.4505 102.727 50.3828C102.859 50.3151 102.97 50.2096 103.059 50.0664C103.15 49.9206 103.217 49.7344 103.262 49.5078C103.306 49.2786 103.328 49.0052 103.328 48.6875ZM108.555 47.7031V48.5703C108.555 49.0365 108.513 49.4297 108.43 49.75C108.346 50.0703 108.227 50.3281 108.07 50.5234C107.914 50.7188 107.725 50.8607 107.504 50.9492C107.285 51.0352 107.038 51.0781 106.762 51.0781C106.543 51.0781 106.341 51.0508 106.156 50.9961C105.971 50.9414 105.805 50.8542 105.656 50.7344C105.51 50.612 105.385 50.4531 105.281 50.2578C105.177 50.0625 105.098 49.8255 105.043 49.5469C104.988 49.2682 104.961 48.9427 104.961 48.5703V47.7031C104.961 47.237 105.003 46.8464 105.086 46.5312C105.172 46.2161 105.293 45.9635 105.449 45.7734C105.605 45.5807 105.793 45.4427 106.012 45.3594C106.233 45.276 106.48 45.2344 106.754 45.2344C106.975 45.2344 107.178 45.2617 107.363 45.3164C107.551 45.3685 107.717 45.4531 107.863 45.5703C108.009 45.6849 108.133 45.8385 108.234 46.0312C108.339 46.2214 108.418 46.4544 108.473 46.7305C108.527 47.0065 108.555 47.3307 108.555 47.7031ZM107.828 48.6875V47.582C107.828 47.3268 107.812 47.1029 107.781 46.9102C107.753 46.7148 107.71 46.5482 107.652 46.4102C107.595 46.2721 107.522 46.1602 107.434 46.0742C107.348 45.9883 107.247 45.9258 107.133 45.8867C107.021 45.8451 106.895 45.8242 106.754 45.8242C106.582 45.8242 106.43 45.8568 106.297 45.9219C106.164 45.9844 106.052 46.0846 105.961 46.2227C105.872 46.3607 105.805 46.5417 105.758 46.7656C105.711 46.9896 105.688 47.2617 105.688 47.582V48.6875C105.688 48.9427 105.702 49.168 105.73 49.3633C105.762 49.5586 105.807 49.7279 105.867 49.8711C105.927 50.0117 106 50.1276 106.086 50.2188C106.172 50.3099 106.271 50.3776 106.383 50.4219C106.497 50.4635 106.624 50.4844 106.762 50.4844C106.939 50.4844 107.094 50.4505 107.227 50.3828C107.359 50.3151 107.47 50.2096 107.559 50.0664C107.65 49.9206 107.717 49.7344 107.762 49.5078C107.806 49.2786 107.828 49.0052 107.828 48.6875ZM111.895 45.3125H112.625L114.488 49.9492L116.348 45.3125H117.082L114.77 51H114.199L111.895 45.3125ZM111.656 45.3125H112.301L112.406 48.7812V51H111.656V45.3125ZM116.672 45.3125H117.316V51H116.566V48.7812L116.672 45.3125ZM51.6172 56.5859V61.625H50.8906V55.7734H51.5547L51.6172 56.5859ZM54.4648 57.8516V57.9336C54.4648 58.2409 54.4284 58.526 54.3555 58.7891C54.2826 59.0495 54.1758 59.276 54.0352 59.4688C53.8971 59.6615 53.7266 59.8112 53.5234 59.918C53.3203 60.0247 53.0872 60.0781 52.8242 60.0781C52.556 60.0781 52.319 60.0339 52.1133 59.9453C51.9076 59.8568 51.7331 59.7279 51.5898 59.5586C51.4466 59.3893 51.332 59.1862 51.2461 58.9492C51.1628 58.7122 51.1055 58.4453 51.0742 58.1484V57.7109C51.1055 57.3984 51.1641 57.1185 51.25 56.8711C51.3359 56.6237 51.4492 56.4128 51.5898 56.2383C51.7331 56.0612 51.9062 55.9271 52.1094 55.8359C52.3125 55.7422 52.5469 55.6953 52.8125 55.6953C53.0781 55.6953 53.3138 55.7474 53.5195 55.8516C53.7253 55.9531 53.8984 56.099 54.0391 56.2891C54.1797 56.4792 54.2852 56.707 54.3555 56.9727C54.4284 57.2357 54.4648 57.5286 54.4648 57.8516ZM53.7383 57.9336V57.8516C53.7383 57.6406 53.7161 57.4427 53.6719 57.2578C53.6276 57.0703 53.5586 56.9062 53.4648 56.7656C53.3737 56.6224 53.2565 56.5104 53.1133 56.4297C52.9701 56.3464 52.7995 56.3047 52.6016 56.3047C52.4193 56.3047 52.2604 56.3359 52.125 56.3984C51.9922 56.4609 51.8789 56.5456 51.7852 56.6523C51.6914 56.7565 51.6146 56.8763 51.5547 57.0117C51.4974 57.1445 51.4544 57.2826 51.4258 57.4258V58.4375C51.4779 58.6198 51.5508 58.7917 51.6445 58.9531C51.7383 59.112 51.8633 59.2409 52.0195 59.3398C52.1758 59.4362 52.3724 59.4844 52.6094 59.4844C52.8047 59.4844 52.9727 59.444 53.1133 59.3633C53.2565 59.2799 53.3737 59.1667 53.4648 59.0234C53.5586 58.8802 53.6276 58.7161 53.6719 58.5312C53.7161 58.3438 53.7383 58.1445 53.7383 57.9336ZM57.8789 59.2773V57.1016C57.8789 56.9349 57.8451 56.7904 57.7773 56.668C57.7122 56.543 57.6133 56.4466 57.4805 56.3789C57.3477 56.3112 57.1836 56.2773 56.9883 56.2773C56.806 56.2773 56.6458 56.3086 56.5078 56.3711C56.3724 56.4336 56.2656 56.5156 56.1875 56.6172C56.112 56.7188 56.0742 56.8281 56.0742 56.9453H55.3516C55.3516 56.7943 55.3906 56.6445 55.4688 56.4961C55.5469 56.3477 55.6589 56.2135 55.8047 56.0938C55.9531 55.9714 56.1302 55.875 56.3359 55.8047C56.5443 55.7318 56.776 55.6953 57.0312 55.6953C57.3385 55.6953 57.6094 55.7474 57.8438 55.8516C58.0807 55.9557 58.2656 56.1133 58.3984 56.3242C58.5339 56.5326 58.6016 56.7943 58.6016 57.1094V59.0781C58.6016 59.2188 58.6133 59.3685 58.6367 59.5273C58.6628 59.6862 58.7005 59.8229 58.75 59.9375V60H57.9961C57.9596 59.9167 57.931 59.806 57.9102 59.668C57.8893 59.5273 57.8789 59.3971 57.8789 59.2773ZM58.0039 57.4375L58.0117 57.9453H57.2812C57.0755 57.9453 56.8919 57.9622 56.7305 57.9961C56.569 58.0273 56.4336 58.0755 56.3242 58.1406C56.2148 58.2057 56.1315 58.2878 56.0742 58.3867C56.0169 58.4831 55.9883 58.5964 55.9883 58.7266C55.9883 58.8594 56.0182 58.9805 56.0781 59.0898C56.138 59.1992 56.2279 59.2865 56.3477 59.3516C56.4701 59.4141 56.6198 59.4453 56.7969 59.4453C57.0182 59.4453 57.2135 59.3984 57.3828 59.3047C57.5521 59.2109 57.6862 59.0964 57.7852 58.9609C57.8867 58.8255 57.9414 58.694 57.9492 58.5664L58.2578 58.9141C58.2396 59.0234 58.1901 59.1445 58.1094 59.2773C58.0286 59.4102 57.9206 59.5378 57.7852 59.6602C57.6523 59.7799 57.4935 59.8802 57.3086 59.9609C57.1263 60.0391 56.9206 60.0781 56.6914 60.0781C56.4049 60.0781 56.1536 60.0221 55.9375 59.9102C55.724 59.7982 55.5573 59.6484 55.4375 59.4609C55.3203 59.2708 55.2617 59.0586 55.2617 58.8242C55.2617 58.5977 55.306 58.3984 55.3945 58.2266C55.4831 58.0521 55.6107 57.9076 55.7773 57.793C55.944 57.6758 56.1445 57.5872 56.3789 57.5273C56.6133 57.4674 56.875 57.4375 57.1641 57.4375H58.0039ZM60.4609 56.4375V60H59.7383V55.7734H60.4414L60.4609 56.4375ZM61.7812 55.75L61.7773 56.4219C61.7174 56.4089 61.6602 56.401 61.6055 56.3984C61.5534 56.3932 61.4935 56.3906 61.4258 56.3906C61.2591 56.3906 61.112 56.4167 60.9844 56.4688C60.8568 56.5208 60.7487 56.5938 60.6602 56.6875C60.5716 56.7812 60.5013 56.8932 60.4492 57.0234C60.3997 57.151 60.3672 57.2917 60.3516 57.4453L60.1484 57.5625C60.1484 57.3073 60.1732 57.0677 60.2227 56.8438C60.2747 56.6198 60.3542 56.4219 60.4609 56.25C60.5677 56.0755 60.7031 55.9401 60.8672 55.8438C61.0339 55.7448 61.2318 55.6953 61.4609 55.6953C61.513 55.6953 61.5729 55.7018 61.6406 55.7148C61.7083 55.7253 61.7552 55.737 61.7812 55.75ZM65.1562 54V60H64.4336V54H65.1562ZM64.9844 57.7266L64.6836 57.7148C64.6862 57.4258 64.7292 57.1589 64.8125 56.9141C64.8958 56.6667 65.013 56.4518 65.1641 56.2695C65.3151 56.0872 65.4948 55.9466 65.7031 55.8477C65.9141 55.7461 66.1471 55.6953 66.4023 55.6953C66.6107 55.6953 66.7982 55.724 66.9648 55.7812C67.1315 55.8359 67.2734 55.9245 67.3906 56.0469C67.5104 56.1693 67.6016 56.3281 67.6641 56.5234C67.7266 56.7161 67.7578 56.9518 67.7578 57.2305V60H67.0312V57.2227C67.0312 57.0013 66.9987 56.8242 66.9336 56.6914C66.8685 56.556 66.7734 56.4583 66.6484 56.3984C66.5234 56.3359 66.3698 56.3047 66.1875 56.3047C66.0078 56.3047 65.8438 56.3424 65.6953 56.418C65.5495 56.4935 65.4232 56.5977 65.3164 56.7305C65.2122 56.8633 65.1302 57.0156 65.0703 57.1875C65.013 57.3568 64.9844 57.5365 64.9844 57.7266ZM68.6484 57.9336V57.8438C68.6484 57.5391 68.6927 57.2565 68.7812 56.9961C68.8698 56.7331 68.9974 56.5052 69.1641 56.3125C69.3307 56.1172 69.5326 55.9661 69.7695 55.8594C70.0065 55.75 70.2721 55.6953 70.5664 55.6953C70.8633 55.6953 71.1302 55.75 71.3672 55.8594C71.6068 55.9661 71.8099 56.1172 71.9766 56.3125C72.1458 56.5052 72.2747 56.7331 72.3633 56.9961C72.4518 57.2565 72.4961 57.5391 72.4961 57.8438V57.9336C72.4961 58.2383 72.4518 58.5208 72.3633 58.7812C72.2747 59.0417 72.1458 59.2695 71.9766 59.4648C71.8099 59.6576 71.6081 59.8086 71.3711 59.918C71.1367 60.0247 70.8711 60.0781 70.5742 60.0781C70.2773 60.0781 70.0104 60.0247 69.7734 59.918C69.5365 59.8086 69.3333 59.6576 69.1641 59.4648C68.9974 59.2695 68.8698 59.0417 68.7812 58.7812C68.6927 58.5208 68.6484 58.2383 68.6484 57.9336ZM69.3711 57.8438V57.9336C69.3711 58.1445 69.3958 58.3438 69.4453 58.5312C69.4948 58.7161 69.569 58.8802 69.668 59.0234C69.7695 59.1667 69.8958 59.2799 70.0469 59.3633C70.1979 59.444 70.3737 59.4844 70.5742 59.4844C70.7721 59.4844 70.9453 59.444 71.0938 59.3633C71.2448 59.2799 71.3698 59.1667 71.4688 59.0234C71.5677 58.8802 71.6419 58.7161 71.6914 58.5312C71.7435 58.3438 71.7695 58.1445 71.7695 57.9336V57.8438C71.7695 57.6354 71.7435 57.4388 71.6914 57.2539C71.6419 57.0664 71.5664 56.901 71.4648 56.7578C71.3659 56.612 71.2409 56.4974 71.0898 56.4141C70.9414 56.3307 70.7669 56.2891 70.5664 56.2891C70.3685 56.2891 70.194 56.3307 70.043 56.4141C69.8945 56.4974 69.7695 56.612 69.668 56.7578C69.569 56.901 69.4948 57.0664 69.4453 57.2539C69.3958 57.4388 69.3711 57.6354 69.3711 57.8438ZM70.7539 54L71.7227 55.0664V55.1055H71.1211L70.5352 54.4453L69.9531 55.1055H69.3594V55.0625L70.3164 54H70.7539ZM75.1719 55.7734V56.3281H72.8867V55.7734H75.1719ZM73.6602 54.7461H74.3828V58.9531C74.3828 59.0964 74.4049 59.2044 74.4492 59.2773C74.4935 59.3503 74.5508 59.3984 74.6211 59.4219C74.6914 59.4453 74.7669 59.457 74.8477 59.457C74.9076 59.457 74.9701 59.4518 75.0352 59.4414C75.1029 59.4284 75.1536 59.418 75.1875 59.4102L75.1914 60C75.1341 60.0182 75.0586 60.0352 74.9648 60.0508C74.8737 60.069 74.763 60.0781 74.6328 60.0781C74.4557 60.0781 74.293 60.043 74.1445 59.9727C73.9961 59.9023 73.8776 59.7852 73.7891 59.6211C73.7031 59.4544 73.6602 59.2305 73.6602 58.9492V54.7461ZM77.7734 60.0781C77.4792 60.0781 77.2122 60.0286 76.9727 59.9297C76.7357 59.8281 76.5312 59.6862 76.3594 59.5039C76.1901 59.3216 76.0599 59.1055 75.9688 58.8555C75.8776 58.6055 75.832 58.332 75.832 58.0352V57.8711C75.832 57.5273 75.8828 57.2214 75.9844 56.9531C76.0859 56.6823 76.224 56.4531 76.3984 56.2656C76.5729 56.0781 76.7708 55.9362 76.9922 55.8398C77.2135 55.7435 77.4427 55.6953 77.6797 55.6953C77.9818 55.6953 78.2422 55.7474 78.4609 55.8516C78.6823 55.9557 78.8633 56.1016 79.0039 56.2891C79.1445 56.474 79.2487 56.6927 79.3164 56.9453C79.3841 57.1953 79.418 57.4688 79.418 57.7656V58.0898H76.2617V57.5H78.6953V57.4453C78.6849 57.2578 78.6458 57.0755 78.5781 56.8984C78.513 56.7214 78.4089 56.5755 78.2656 56.4609C78.1224 56.3464 77.9271 56.2891 77.6797 56.2891C77.5156 56.2891 77.3646 56.3242 77.2266 56.3945C77.0885 56.4622 76.9701 56.5638 76.8711 56.6992C76.7721 56.8346 76.6953 57 76.6406 57.1953C76.5859 57.3906 76.5586 57.6159 76.5586 57.8711V58.0352C76.5586 58.2357 76.5859 58.4245 76.6406 58.6016C76.6979 58.776 76.7799 58.9297 76.8867 59.0625C76.9961 59.1953 77.1276 59.2995 77.2812 59.375C77.4375 59.4505 77.6146 59.4883 77.8125 59.4883C78.0677 59.4883 78.2839 59.4362 78.4609 59.332C78.638 59.2279 78.793 59.0885 78.9258 58.9141L79.3633 59.2617C79.2721 59.3997 79.1562 59.5312 79.0156 59.6562C78.875 59.7812 78.7018 59.8828 78.4961 59.9609C78.293 60.0391 78.0521 60.0781 77.7734 60.0781ZM81.0469 54V60H80.3203V54H81.0469Z" fill="black"/>
<path d="M48.355 11.895H49.5635C49.5312 12.3228 49.4126 12.7021 49.2075 13.0332C49.0024 13.3613 48.7168 13.6191 48.3506 13.8066C47.9844 13.9941 47.5405 14.0879 47.019 14.0879C46.6177 14.0879 46.2559 14.0176 45.9336 13.877C45.6143 13.7334 45.3403 13.5298 45.1118 13.2661C44.8862 12.9995 44.7134 12.6802 44.5933 12.3081C44.4731 11.9331 44.4131 11.5127 44.4131 11.0469V10.5591C44.4131 10.0933 44.4746 9.67285 44.5977 9.29785C44.7207 8.92285 44.8965 8.60352 45.125 8.33984C45.3564 8.07324 45.6333 7.86816 45.9556 7.72461C46.2808 7.58105 46.644 7.50928 47.0454 7.50928C47.5669 7.50928 48.0078 7.60596 48.3682 7.79932C48.7285 7.98975 49.0083 8.25195 49.2075 8.58594C49.4067 8.91992 49.5269 9.30371 49.5679 9.7373H48.3594C48.3359 9.46777 48.2773 9.23926 48.1836 9.05176C48.0928 8.86426 47.9551 8.72217 47.7705 8.62549C47.5889 8.52588 47.3472 8.47607 47.0454 8.47607C46.811 8.47607 46.6045 8.52002 46.4258 8.60791C46.25 8.6958 46.1035 8.82764 45.9863 9.00342C45.8691 9.17627 45.7812 9.39307 45.7227 9.65381C45.6641 9.91162 45.6348 10.2104 45.6348 10.5503V11.0469C45.6348 11.3721 45.6611 11.6636 45.7139 11.9214C45.7666 12.1792 45.8486 12.3975 45.96 12.5762C46.0713 12.7549 46.2148 12.8911 46.3906 12.9849C46.5664 13.0786 46.7759 13.1255 47.019 13.1255C47.3149 13.1255 47.5552 13.0786 47.7397 12.9849C47.9272 12.8911 48.0693 12.7534 48.166 12.5718C48.2656 12.3901 48.3286 12.1646 48.355 11.895ZM54.7446 10.2427V11.1919H51.3784V10.2427H54.7446ZM51.708 7.60156V14L50.4995 14V7.60156L51.708 7.60156ZM55.6411 7.60156V14H54.4326V7.60156L55.6411 7.60156ZM59.4951 8.57275L57.6714 14H56.3926L58.7832 7.60156H59.6006L59.4951 8.57275ZM61.02 14L59.1875 8.57275L59.0776 7.60156H59.8994L62.3032 14H61.02ZM60.9365 11.6226V12.5762L57.5044 12.5762V11.6226L60.9365 11.6226ZM68.104 7.60156V14H66.8911L64.1709 9.56152V14H62.9624V7.60156H64.1709L66.8999 12.0444V7.60156H68.104ZM73.0786 11.895H74.2871C74.2549 12.3228 74.1362 12.7021 73.9312 13.0332C73.7261 13.3613 73.4404 13.6191 73.0742 13.8066C72.708 13.9941 72.2642 14.0879 71.7427 14.0879C71.3413 14.0879 70.9795 14.0176 70.6572 13.877C70.3379 13.7334 70.064 13.5298 69.8354 13.2661C69.6099 12.9995 69.437 12.6802 69.3169 12.3081C69.1968 11.9331 69.1367 11.5127 69.1367 11.0469V10.5591C69.1367 10.0933 69.1982 9.67285 69.3213 9.29785C69.4443 8.92285 69.6201 8.60352 69.8486 8.33984C70.0801 8.07324 70.3569 7.86816 70.6792 7.72461C71.0044 7.58105 71.3677 7.50928 71.769 7.50928C72.2905 7.50928 72.7314 7.60596 73.0918 7.79932C73.4521 7.98975 73.7319 8.25195 73.9312 8.58594C74.1304 8.91992 74.2505 9.30371 74.2915 9.7373H73.083C73.0596 9.46777 73.001 9.23926 72.9072 9.05176C72.8164 8.86426 72.6787 8.72217 72.4941 8.62549C72.3125 8.52588 72.0708 8.47607 71.769 8.47607C71.5347 8.47607 71.3281 8.52002 71.1494 8.60791C70.9736 8.6958 70.8271 8.82764 70.71 9.00342C70.5928 9.17627 70.5049 9.39307 70.4463 9.65381C70.3877 9.91162 70.3584 10.2104 70.3584 10.5503V11.0469C70.3584 11.3721 70.3848 11.6636 70.4375 11.9214C70.4902 12.1792 70.5723 12.3975 70.6836 12.5762C70.7949 12.7549 70.9385 12.8911 71.1143 12.9849C71.29 13.0786 71.4995 13.1255 71.7427 13.1255C72.0386 13.1255 72.2788 13.0786 72.4634 12.9849C72.6509 12.8911 72.793 12.7534 72.8896 12.5718C72.9893 12.3901 73.0522 12.1646 73.0786 11.895ZM79.4639 13.0508V14H76.0625V13.0508H79.4639ZM76.4316 7.60156V14L75.2231 14V7.60156L76.4316 7.60156ZM79.02 10.2427V11.1699L76.0625 11.1699V10.2427L79.02 10.2427ZM79.4507 7.60156V8.55518L76.0625 8.55518V7.60156L79.4507 7.60156ZM83.5464 11.0557L82.6191 10.8315L82.9751 7.60156L86.4951 7.60156V8.56396L83.9375 8.56396L83.7705 10.0581C83.8613 10.0024 83.9932 9.94678 84.166 9.89111C84.3418 9.83252 84.5396 9.80322 84.7593 9.80322C85.064 9.80322 85.3364 9.85303 85.5767 9.95264C85.8169 10.0493 86.0205 10.1899 86.1875 10.3745C86.3574 10.5591 86.4849 10.7847 86.5698 11.0513C86.6577 11.3149 86.7017 11.6138 86.7017 11.9478C86.7017 12.2407 86.6577 12.5161 86.5698 12.7739C86.4849 13.0288 86.3545 13.2559 86.1787 13.4551C86.0029 13.6514 85.7817 13.8066 85.5151 13.9209C85.2485 14.0322 84.9351 14.0879 84.5747 14.0879C84.3022 14.0879 84.04 14.0483 83.7881 13.9692C83.5391 13.8872 83.3149 13.7686 83.1157 13.6133C82.9165 13.4551 82.7568 13.2617 82.6367 13.0332C82.5195 12.8047 82.4551 12.5425 82.4434 12.2466H83.5903C83.6108 12.4429 83.6636 12.6099 83.7485 12.7476C83.8335 12.8853 83.9448 12.9907 84.0825 13.064C84.2231 13.1372 84.3857 13.1738 84.5703 13.1738C84.7373 13.1738 84.8809 13.1431 85.001 13.0815C85.124 13.0171 85.2251 12.9277 85.3042 12.8135C85.3833 12.6992 85.4419 12.5645 85.48 12.4092C85.5181 12.2539 85.5371 12.084 85.5371 11.8994C85.5371 11.7207 85.5151 11.5581 85.4712 11.4116C85.4272 11.2622 85.3599 11.1333 85.269 11.0249C85.1782 10.9165 85.064 10.833 84.9263 10.7744C84.7915 10.7158 84.6333 10.6865 84.4517 10.6865C84.2085 10.6865 84.021 10.7231 83.8892 10.7964C83.7603 10.8696 83.646 10.9561 83.5464 11.0557Z" fill="black"/>
</svg>
