<svg width="200" height="200" viewBox="0 0 200 200" fill="none" xmlns="http://www.w3.org/2000/svg">
<rect x="1.5" y="1.5" width="197" height="197" rx="13.5" fill="white" stroke="black" stroke-width="3"/>
<path d="M78.1602 62.7598V134H64.0977V78.9707L47.2031 84.3418V73.2578L76.6465 62.7598H78.1602ZM149.938 123.014V134H101.305V124.625L124.303 99.9668C126.614 97.3952 128.437 95.1328 129.771 93.1797C131.106 91.194 132.066 89.4199 132.652 87.8574C133.271 86.2624 133.58 84.7487 133.58 83.3164C133.58 81.168 133.222 79.3288 132.506 77.7988C131.79 76.2363 130.732 75.0319 129.332 74.1855C127.965 73.3392 126.272 72.916 124.254 72.916C122.105 72.916 120.25 73.4368 118.688 74.4785C117.158 75.5202 115.986 76.9688 115.172 78.8242C114.391 80.6797 114 82.7793 114 85.123H99.8887C99.8887 80.8913 100.898 77.0176 102.916 73.502C104.934 69.9538 107.783 67.138 111.461 65.0547C115.139 62.9388 119.501 61.8809 124.547 61.8809C129.527 61.8809 133.727 62.6947 137.145 64.3223C140.595 65.9173 143.199 68.2285 144.957 71.2559C146.747 74.2507 147.643 77.8314 147.643 81.998C147.643 84.3418 147.268 86.6367 146.52 88.8828C145.771 91.0964 144.697 93.3099 143.297 95.5234C141.93 97.7044 140.27 99.918 138.316 102.164C136.363 104.41 134.199 106.738 131.822 109.146L119.469 123.014H149.938Z" fill="black"/>
</svg>
